/* XPM */
static char * icon_xpm[] = {
"56 46 31 1",
" 	c #AEBAAAAAAEBA",
".	c #8E389A69BEFB",
"X	c #9E799A69AEBA",
"o	c #8E389A699E79",
"O	c #9E798A28A699",
"+	c #96588617AEBA",
"@	c #8E388A289E79",
"#	c #861786179E79",
"$	c #71C68A288E38",
"%	c #861775D69E79",
"&	c #69A675D69E79",
"*	c #71C675D68E38",
"=	c #AEBA9A69B6DA",
"-	c #9E799A699E79",
";	c #86178A288617",
":	c #861775D679E7",
">	c #71C675D671C6",
",	c #69A665959658",
"<	c #861782078617",
"1	c #FFFFFFFFFFFF",
"2	c #618565958E38",
"3	c #FFFFFFFF0000",
"4	c #C71BC30BC71B",
"5	c #000000000000",
"6	c #861782070000",
"7	c #6185659571C6",
"8	c #6185618569A6",
"9	c #6185555571C6",
"0	c #5144659571C6",
"q	c #4924596579E7",
"w	c #596555555965",
" . X X XXXXXoX.XoXoXoOoOo+o@o+o@o@o@#@@@$@$@$%$%$%$%$&$*",
"=X=X=XX-X-X-O-X-O-OoOoOoO@OoO@O;O@@;@;@;%;%$:;%$:$:$:*:*",
" XXX XXXXX.XXXoOoOoOoOoOoOo+o@@@@@@@@@$@#@$%$%$%$%$&$**&",
"=X=XX-X-X-O-O-O-OoO@OoO@O@O@@@@@@;%;%;%;%$%$%$:*:$:***:*",
" X XXXXXoX.XoXoXoOoOo+o@o@o@@@o@#@#@$@$@$%$%$%$%$&$*$*$*",
"=XX-X-X-O-O-O-OoOoOoO@O@O@O;O@@;%;@;%;%$:$%$:$:$:*:*:**>",
" XXXXXoXXXoOoOoOoOo+oOo+o@@@@@@@@@$@#@$%$%$%$%$&$***$***",
"X-X-X-O-OoO-OoO@OoO@O@O@@@@@@;%;%;%;%$%$%$:*:*:***:**>,*",
"XXXXoX.XoOoXo+oOo+o@o@o@@@@@#@#@$@$@$%$%$&$%$&$*$*$*****",
"X-X-O-O-O-OoOoOo<<<<<<<<<@@;%;@;%;%$:$%$:$:$:*:*:**>*>*>",
"XXoX.XoOoOoOoOo<111111111<#@@@$%#@$%$%$%$%$&$*********2*",
"X-O-OoOoOoO@Oo<13434343434<;%;%;%$%$%$:*:*:***:**>,*,>,>",
"oXoXoOoOo+oOo<1343434343434<$@$@$%$%$&$*$&$*$*$*2***>*2*",
"O-OoO-OoOoOo<444444444444444<<<<<<<<<<<<<<5*:**>*>*>,>,>",
".XoOoOoOoOo+<1111111111111111111111111111155******2*2*>,",
"OoOoOoO@OoO@<1343434343434343434343434343465*>,*,>,>,>,>",
"oOoOo+oOo+o@<14343434343434343434343434343652*2*>*>*>,>*",
"OoOoOoOoO@O@<1343434343434343434343434343465,>*>,>,>,>,>",
"oOoOoOo+o@@@<1434343434343434343434343434365**2*2*>,>,>,",
"OoO@OoO@@@O@<1343434343434343434343434343465,>,>,>,>,>>7",
"o+oOo+o@o@o@<1434343434343434343434343434365>*>*>,>*>2>,",
"OoOoO@O@O@@;<1343434343434343434343434343465,>,>,>,>>>>>",
"oOo+o@@@o@@@<14343434343434343434343434343652*>,>,>,>,>2",
"O@O@@@O@@;%;<1343434343434343434343434343465,>,>,>>7,7>7",
"o+o@o@o@@@@@<1434343434343434343434343434365>,>*>2>2>2>7",
"O@O@O@@;@;@;<1343434343434343434343434343465,>,>>7>>>7>7",
"o@@@@@@@@@$@<1434343434343434343434343434365>,>,>,>2>777",
"@@O@@;%;%;%;<1343434343434343434343434343465,>>7>7>77777",
"@@o@#@@@$@$@<1434343434343434343434343434365>2>2>2>777>7",
"O@@;%;@;%;%$<1343434343434343434343434343465>7>7>7>7>778",
"@@@@@@$@#@$%<1434343434343434343434343434365>,>2>7777777",
"@;%;%;%;%$%$<1343434343434343434343434343465>7>777777898",
"#@#@$@$@$%$%<1434343434343434343434343434365>2>777770707",
"%;@;%;%$:$%$<1343434343434343434343434343465>777>7789878",
"@@$@#@$%$%$%<6666666666666666666666666666665>77777077709",
"%;%;%$%$%$:*:5555555555555555555555555555557777778989898",
"$@$@$%$%$&$%$&$*$*$*****2*2*>,>*>,>,>2>7>7>7777707070707",
"%;%$:$%$:*:$:*:*:**>*>*>,>,>,>,>>>>>>7>7>777777898789890",
"$@$%$%$%$%$&$*********2*2*>,>,>,>,>2>272>777770777090709",
"%$%$%$:*:*:***:**>,*,>,>,>,>,>>>,>>7>7>77777789898989090",
"$%$%$&$*$&$***$*2***>*2*>,>*>,>,>2>7>7>77777070707070909",
":$%$:*:*:*:*:**>,>*>,>,>,>,>>>>>>7>7>7777778989898909890",
"$%$%$%$&$*********2*2*>,>,>,>,>2>772>777770777090709090q",
"%$:*:*:******>,>,>,>,>,>,>>7,>>777>77777789890989090908w",
"$&$*$*$*****2*2*>*>*>,>*>,>,>2>7>7>777770707090709090q0q",
":*:*:*:*:**>,>*>,>,>,>,>>>>>>7>7>77877789898989090908w8w"};
