/* XPM */
static char * littlelinkfolder_xpm[] = {
"15 13 6 1",
" 	c NONE",
".	c #8A288A288A28",
"X	c #BAEABAEABAEA",
"o	c #FFFFFFFF0000",
"O	c #FFFFFFFFFFFF",
"+	c #000000000000",
"  .....        ",
" .XoXoX.       ",
".XoXoXoX...... ",
".OOOOOOOOOOOO.+",
".OoXoX+++++++.+",
".OXoXo++OOOO+.+",
".OoXoX+++OOO+.+",
".OXoXo++OOOO+.+",
".OoXoX+OOO+O+.+",
".OXoXo+OO++++.+",
".OoXoX++OO+++.+",
"......+++++++.+",
" ++++++++++++++"};
