/* XPM */
static char * noicon_xpm[] = {
"24 32 2 1",
" 	c #000000000000",
".	c #FFFFFFFF0000",
"                        ",
" ...................... ",
" ...................... ",
" ...................... ",
" .. .... ....   ....... ",
" ..  ... ... ... ...... ",
" ..  ... ... ... ...... ",
" .. . .. ... ... ...... ",
" .. . .. ... ... ...... ",
" .. .. . ... ... ...... ",
" .. .. . ... ... ...... ",
" .. ...  ... ... ...... ",
" .. ...  ... ... ...... ",
" .. .... ....   ....... ",
" ...................... ",
" ...................... ",
" ...................... ",
" ...................... ",
" .. ..   ..   .. ... .. ",
" .. . .... ... .  .. .. ",
" .. . .... ... .  .. .. ",
" .. . .... ... . . . .. ",
" .. . .... ... . . . .. ",
" .. . .... ... . ..  .. ",
" .. . .... ... . ..  .. ",
" .. . .... ... . ... .. ",
" .. ..   ..   .. ... .. ",
" ...................... ",
" ...................... ",
" ...................... ",
" ...................... ",
"                        "};
