/* XPM */
static char * ok_xpm[] = {
"16 15 2 1",
" 	c #CF3CCF3CCF3C",
".	c #000000000000",
"                ",
"                ",
"          ..    ",
"         ...    ",
"         ..     ",
"        ...     ",
"        ..      ",
"  ..   ...      ",
"   ..  ..       ",
"    .....       ",
"     ...        ",
"      ..        ",
"                ",
"                ",
"                "};
