/* XPM */
static char * treeplus_xpm[] = {
"22 15 3 1",
" 	c None",
"X	c #000000000000",
".	c #FFFFFFFFFFFF",
"                      ",
"                      ",
"                      ",
"          XXXXXXXXX   ",
"          X.......X   ",
"          X...X...X   ",
"XXXXXXXXXXX...X...XXXX",
"..........X.XXXXX.X...",
"          X...X...X   ",
"          X...X...X   ",
"          X.......X   ",
"          XXXXXXXXX   ",
"                      ",
"                      ",
"                      ",
"                      "};
