/* XPM */
static char *t1[] = {
/* width height num_colors chars_per_pixel */
"   140    91       62            1",
/* colors */
". c #060607",
"# c #566664",
"a c #2e3837",
"b c #464ecc",
"c c #3e4e4c",
"d c #26a224",
"e c #161e1c",
"f c #767f7e",
"g c #364242",
"h c #565659",
"i c #2e2e2e",
"j c #6e6e6e",
"k c #1e2a2a",
"l c #0e1314",
"m c #868b8b",
"n c #3e3e40",
"o c #4e5b59",
"p c #464649",
"q c #565f5d",
"r c #2e3e3c",
"s c #4e5153",
"t c #6e7775",
"u c #666f6d",
"v c #262526",
"w c #868686",
"x c #1e1a1c",
"y c #36393b",
"z c #7e8684",
"A c #3e4a4a",
"B c #263232",
"C c #161a1a",
"D c #66696b",
"E c #8e9694",
"F c #36bebc",
"G c #9e9e9c",
"H c #666264",
"I c #0e0e0e",
"J c #1e2625",
"K c #8e9294",
"L c #465654",
"M c #565a5c",
"N c #2e3233",
"O c #6e7274",
"P c #4e5655",
"Q c #3e4445",
"R c #262c2c",
"S c #161515",
"T c #464a4c",
"U c #0e0a0c",
"V c #5e6766",
"W c #464f4e",
"X c #1e2122",
"Y c #7e8181",
"Z c #8e8e8c",
"0 c #5e6263",
"1 c #76797a",
"2 c #969a9c",
"3 c #262e34",
"4 c #363e3e",
"5 c #363234",
"6 c #767274",
"7 c #060a0c",
/* pixels */
"QQ444a444QcRc14ilXeRya444a44y4yBglRVt0sy4cQWQeacPc4QqqyBu0cPqcWLqPalacbcQ4akllyt1tWavinsclQycPcTcWcW4lihMcQ4y4l0cQP4444ak4aBa4y4Q4e..lReXaBa",
"7.lBaragrgylOuRsQ3ak..llkRakkkXeS.oOc3BaQcQraa.gAAccLAlVucWPLQLLoMLgSacaBXJrq0#DAXJygWcgrikg4AAggArBlr#AX3QgBalgcgQrgr4gcccTcAgaeyu1qcQykkkl",
"ecLXeB4rggkXuqRAcgAPLcaBk77.agAAAA7oAQcQQQraaBkePWrArXQtWQLWLsLoLLLWACgQALMLWWJa33WPggyaakkNgBayaaJCQsakXQQaaBXaAg4aryrAc4cQArkkotVQa4AQcQcc",
"4tLAAJlargXsuggWrr4QrALWgXVtqVcgQ4IqPTArraNgggQkrAQABCu#rWoQLLWPLLsWA4RcMAJnhsgAQcWyy44ra4alagLQcBBcAaJeagakkaeNLa4rQBWAQrcrkXWt#rRi4Qrr4cga",
"tVBgccneek.jui4gyQrcgLWaJuOhggAgggJ4Lggga4QgWrA4eLAgXQVTgoQALoAsLWWcTQeRBRq0qWQBypaaaargngakCLqcRgcWyagBBBagaBRSkygg44rgAgaXAVDWvvaAW444ccak",
"#aNcQnAWaS7cLyQA4cTAWLBCV0naanQ4ayCycQ4gAgTA4QQrJBkeeXcTTLLToLLcLLWAgklSTf1oyagS4ggg4gQ4Q4RrNQgXlvRaBaaRBaaaBgBIovCkrgQr4kaoqWa3BQraya4gQNe0",
"yiAAcgQAAASSWcAAgQrLcXl#04any3aiaakasQgQgggQgAQaXerWVQrxaWosTPLsWAnRXlctf0rr4gNJRAggggQgyr3gBJrqOqQveekkraBaaBBeuoWyUkBRaTWA3RBagQ4BygaQaSL#",
"kgcA44gccQg7BcrA4QArCiqog5yyiRairyNRogcA4gyrWgaeCq6VWyMon3kaQAWQgkJRqzYjWyNTcgyNkrQAQraraaJJiuztqgL#LrJUkB3rBB3l0cQo0QllJyyryrnaryBgaa4BCcDn",
"QWAagAALAgckIeNgAQNIRqMyNyaR3kaiyareoQQcgg3AgBelouhATgcWQWTg3Jr3JauffucaQWpTgr4akaQaaaBkkC7ktY#agcPcWoPcQklRaBBecqgLcsTPgklCRBragg4y4crR4tMk",
"sQQggAAAAQAJ4oeCBJlBqLyagaaayRyargyCLcgQQrgrBlXVfqrTcy4ygWcQyeCaCffuQ34sscAQ4nggNeJNarTgRkCPtoaQcPhLAcAWqQgakBBxWhgWWgALMLQ3NIleggryQgNytqir",
"crrc4AAAgQgS#uTgXlNLWy3cgyarBagraraSWQgQggWR3V4uoggcQB3Acc4NBPgcJWhagMMLAyAgNQgaXqV0LLA3i#NTWyroc4QQQWroLX#oRkNJa#ngWrcWAQWoLPrJXlkg4aet#ayW",
"QrQ4AgAAAWB3#WrcAa3pykQya4ay4Baangak4cggyAJQuugagAAgyaaTQrNLqWaQ3gosqoWAggcAQNNX#VPQyNXQ##T4RgoAgQAcLWQogrqAyaJkB04cWyTLcgcAAAnWaNeraCDVryAW",
"gQcAgQcccgeoVagWcgQkv5raNaaaayBry4akaQgByaVVqy4JcWQQryBaNWqqLvQWiX0PcAQAQATgyJX#qQQraaq00grXQyApAgcTLArAR0WBgQvkyV4ApagTAQgAA4acRQLJXL04RAcy",
"4cgArAAAABJVTagQgcoWXSaNBaaaaBNaB4nB3gRkq10W3kWNacAAca3c0Vog3QWQaeLTggWAncgye3osAraNWDoQanQayrBgWLLcAAgBAPgyAgrJIPQaaBgQ4gQQTA44loLv7gAkQcrr",
"WncAgg4gAlWqNgcQALcgQgXC3ra44BrArakXJkeu1oNigQ4aX4cAgkcDLAQrgoTaaJ3ca4n44QR7NVPa5ag#0cagAgTAvgAagWAgrriITLNQcQALXPoLoagQggAgQrgaCsgReUyrA444",
"ccnArWcWgX#qycQgWc4gAQAXCaaBBaTAgrNeIrtjyJaccgNNB3QgBBuq4gQyWgaB4nyqaQcAyl74PWa3BADqya4ggQccB4cga4raWqAutPW#PLPLaTVWPgaQLg4Qcg4iQ#Q3kl.BQQrc",
"WAc4cQAAJAqgQLrsPWcLQacaB34Nk4AaaaCruYOBJ3aB3kakaJQrRLqagWgQW4kgAcCs4AQn3kJqo5NQqoPBygAggATc4JAWgN0ytVWjonoWWTcTQa0AsWaacQAr4gB3o0NBJ3C7Jgg4",
"cQgArccaCu#4cgWWAQAAc44NaagkAPQBkNV1#4aacAyQNakkkJRByqW4QryLA3gccyXRQg4iJAWXa4o#qa3Bcg4yQcAWcagog#ugqy0#nLoAcWLLQvoWLAgaag4ArQaSjWkrRe3l7aAg",
"cyAAQcA3AVrgQgcWgWcAAAAeQWJyLQXXPtuQRaAQAkggrgg4aXllLWQggaPQJrAnngBXnQ4ls4yeaqMgByaAnggQcLAWAykkQf#PRct0gPLATLocQBAsWcprgcg4agk30NBaJkkRC74A",
"acrArcBluq3ggosAccQQcAAlLo.Ws3QuOsRJ3ATaNvgg4yy4Bkag4kNracPBrQgrQ4a7g4ioqJNnkA4grgg4g4cQAWLgQrTnVpac7uDQAPQcLLWcA4aPcAQgkarar4ScDvBaRkRBBS.l",
"llkAgQBcuaaALLAALAAcAQaJog3QQVOq3JRgyQaBkggar43ByaQTagQaksQ4gQ4ggaaSBrnt4k4avl4QAcAgWAcALTgaoPQ1uriBl0MrsWAPcTcQgBkkBkgA4kaaAASVoRy3kRBBBeRq",
"Pca7erI#qrgLPcgTAcAcgAgrqvy3vWBvkgQgBggaaAQaakBrAkAWaJaQJcc4Q44rra4keeYqXBaJkBNcAQcgcgWggaAqLaPqTQAQCgLWPcLAWWcgNa#DAQaklXnga4SPQkgRJkakBeRt",
"cgLLBl7ocgWgWAAAWggAcoa4c3QBSByygAaaky4k4gBk3rgQaXArggaBeQgryragyra3UOYkXvkBkNC4cWcWgggrToLWvWuPgTAQXyLPcWcAcAaRTuVLWooMBWAkvllLaaaeBBRkalgu",
"aaAQccCAqWgWgccAQrQWLQXgcQ4g4kJraaaga3a3AABgNcrak3QrygraJaaaaaaBBkya7Yslakek3BkeTccgAAATocAkgt#gAQgAvC3rggAWaByMVqyarTgQaAQyggIk3BRBBRaRa7Lu",
"aycgWcBlLAcAWcArgAcAg4eMgTAaA4BvkagagcggAay4k4raJgcr4araerararB3aaak.taXQXXJkB3vkQWggLLAABakfVQQATQAkcJcWAaavQ#oTgnAWWQaAAarQNBsB7JkRkaRB7Lu",
"3rcWWcQCBLcWcTrgAWcWc4BLaAQ3TQggNk4NggkTgayaBBraXAgarryaBXrrXXkklll7.OaBrX3kBJ3BJBAQQWnagNNfOrQcggggXsyh#oMPacTgaQcAgggNcPW4gRNLcg3leJRkBIqq",
"kPcccAggSccgg4gLcAgAcB3oBQAagAgQArJanaag4rrBa3rBkrgaaaBrakeCX3angR3B.u3iaeJakkJkJlgcgaagaXD1QgQcr4gg3caysWcLAa4AWcpgWAaAAAQgakiLgQgcrBlCe7#L",
"iLAWcTcgBaWWLgQcAQggQJgoNAA43gAgQAyaBJ4cBBBvBB4BBgarrrrrXILVVqcaaiB37u3aBeXkRJ3XJJXLLgJXllfqaQcgggWckWgkosWsTWgAcTAcAANLAQg4gX3qgygBQAABCIVA",
"QLccTAcAaS4cqWgr4AQAQXcWagArangggryyJlkNBBBBBXr3r4ryaaaJCcuVWayrpaBBS0yBBeeBRkRJ3CC4ABacq7LWaA4grgWQJWy3cLLPcWsgQgTWQa4WrgQageAqaygaBayggeQy",
"WPAcATAgAk30occWraBr4eccaAAgaB4a3eQLW3e7CJkkkJakg4rraaJXgV#4BagAQ4BBlVrNakXXkBkJCl.Jgt2tuS3QgQag4Ag4vArBQPLcpLLLggTgcagQAQgg4CgokrgToQggAyeA",
"PcWccAAggB3kSIeCeCS7lCaQBg4NaJyAo#0LyWVLa3rBBkeJJJXXke7rpoABBgraBaBalcBkk3XJXCl7.gVmmK#aQ33QB3kkk33BkAaXJCJJXeXkBle3k3aggggNRJTo4csQggQggaRi",
"agcLcgQgAkqjqVMoPqPLNvBXBBgWBq#qL4vRo#qLPaRygggBacAg3JLoBQyR44aaBBBkScBkeee77lQ#wzY0cAQQWaCgWoAAWQQAkNXCVf#PWcAAAcBygak44arWNiMqygcrrArAQggX",
"lyAcAAcrRatVcoQgcAWLagWJeW#L4gyXJaWMsQaaQWaXXakkgArJeALAaAN3gBkaBaBBlakkClkAuzfVcgyyTLqLnaeaWWggAg33lasemVsLcAWAWWcBAQBk4PPWclWcBarr4QagarQ4",
"47ygQAgSeq#QQA4AAWcANLgTuc3NBlkaPqoAryQgAQgAeXCSBrJXgPgBaaBg4aaagBaaSkly#LQuuLyJaQLoqqcyNalkLcyg4vJ4LcqeuAAW4nAWQcQAaryLDsgQQSWTBg4aaA4agygr",
"rkBoAAaILVW4PTgPoLPgrAy#o3ak3RahW4aaagggArggBrWyQkxWoraygXrQaBaaBrrkl4zYVPg3iayAAQnQAsgyBgXkogBXkc0Ls3cR0WcWQrQcQccATkrDc3nrReQaRQaaaraQrc4Q",
"4rBBgQXJOM3AcccPqoWa4aLqiRr4Xae44a4rrggra44rXMLgPo3ggRB3Bergara4rgae#2tcaBrWnlNQyr4nQcWggQkvaeaojqWaa3QeLLWcr44AcgAc4eQQaa#LPJsRarrgygr4Qggr",
"AakllClMu4aALWLoocckasqgRQLQTyvJggg4rra4arrBBoygLg4JJryaaXrargaBBgBgmtRRgyWscykCka4AWPLQgACSyutuWaNryg4JoWcAg4A4gggaX4V#PsqWArgBRggggaggarra",
"kS3uuVrrQapLAWLocWgRyVoaNLAgcgBerr4yagBgg4glWLkaQgTLT3graB3ragaggaefuXBcgTcAgQgyCeyAATrAWk.#ZDAB3aQWAQalPcagarggATAB4VVsgaayrgBAJagrrQ44ag4c",
".c1VAa4CQWPLcALLcLJkoLRvWAggccrvv4gcgggrgBBrD4yoLcALAgkBgakrrragBk#fyNcQncAgrLAcW3lJnL4AQ7nmoX5cQQgggQ4lWnggWrcccABrMVgN4ggpcWyQrXggggrryaak",
"qOoy544JBPcLWgTcgnCTVyRgWQrAgAWaC3aaa4krAAR##kaW4grggAaXrB3BNrBgartLBggagc4n4gcTcWgelAAAXlftkBWcgaa4grrUPgAAAaAggavP#TagcA4cWccaagQraraaaylX",
"V4aaAA43AvQcLPcrQXJ#PkaWWgAAAgcQkBB3BcALL3Q#nkaAgQQgQQrgCakBrBgaJ#o3yQQaQAgQgQAgQcWkagg370uricQy3B4ag4A.oA4QArWgrJLDP4AAWc4AcAcyk#LrBgagBlgV",
"nagQgg4JgayLLcgaklLD43QcAgTgAcWrg3ggLcAr4l#qk4Q4nQgQggggrl3B4rakAsa4cAQArWcAAQcAAgACWA47cDQ3QgaBagggAgT7AggcAag3XlquAAAcAgQccTLkAoWcrBBkCrqo",
"rng4ArgRgArQcyJL#eoc3goAQAcAAccWgBarWQya3ADQRcAagrQQgcrc4r7kakkB#cyQr4gQr4AgAQLAcWr3o3XNDLNya3aBAc4gg4rUAgWcaXCrTRaqgWWQgcWcgogQqWgLWkJBagrN",
"4ayr4QyeAArkXcOfLQv4BsAgAAAWAWAAAJIeBka4lu03gngaaArcgggrg4B.JakVL4aryQgggArcQgWQcAkLDXlQQka4yyaAaArrA4QlAcB3lrLqAgeQLccccA4QoLkMqaQoAgeXXQ4a",
"irAQArrXrkaLuuunXnBk4cQQcccLAcA4eXLHWk3l7uc3WQAra4rrQrQrrgrLakLoga4grA4ArQa4QgcAAQ.Yqaggyyaa44rQr4rgrrr.rXkA#LTAAQ3loLTcAggookAVMgAooookIary",
"FAggBkllytttLav3nLWlQacPAcTcWcglRPMcg4a47VAQPr4rrakgBBa4yggre..lRee3a3QAr4rBr44gckAfg3leekrar4rrryryraylk#t0Wy4WgcQeBcLc4Aoqyau0cLqccLqLalNc",
"Wrkev4o#uVAvXaQWWQr3kQrAAgQArBl4#AJNQgBalgcgggr4rgAAcccAgBXautqcgykkkl..Iaa4r4grylOuRWQ3Bk..llvkrkk3Cel.oOL33ygAg4yBUgWAcALWl0VWWhLQLLooWaky",
"cnQLo#ogJ3NBALg44BaRJaQBraraklrWaJXgQaaBXycgryryQAcgWgA4kkotDAancQWQcAeALXeB4rgQkvuo3ccQchLAaak7..agWAWcUoAnWgQAgNBakXLPrA4JytogLcLscoPLLsBa",
"Qc#Pa3SyJoQTWyyraaaral4gLQgJJATaXXagak3Be3Pyr4gaAgQgcr3XWt#nk3nQgrgcgay1LcAelarQeWOn4W44ngrALc4eDO0#Lgg47MsWc4raBgrg4eagAABeV#QWoALoTLLPLWTJ",
"JAABCnVDWg4Qyara4gQyakSAArJQWsrarB3BagaB3S3BAQrryAggaXguVTvXrQc44rcWBkuDBgAcQeXJ7jO3rQag4cQcsrJuOsangng4XgcAg4ayAAWrQrCWg4lg0LQWcQPLLsPLLcA4",
"ekJ3jt#4aCQgn4g4ggQgakCrAkCkRNaaakBaarara7#vlvrggry3aoosakBngaya4ngaX##B3cQgAWal7chygcgAAALLBSuVyNygAryreycgyggApgArcAJaBXeeLsALQALPcLPWWWQQ",
"lSs1tPyyaCyWggQggg4aBaaNQ#jqAJeekBgBkaBB3luPLy73NkaWcTBkay4g43rgrg4lLDrNcTAg4AAASCcAAAQggLAXlVqaapg3y3ayvasArAQAgWagABeCaLupQCkQLAPoPLWLWgQB",
"W1f#5arg4kNc4gngrgagJXNufOoWP#L4J.RaBrakaI#Wgq#QlIkyy4ya44ryr4aa4alcVnJgAArQQAcAr7BLrAgQg4Ca0sg3QyRvNNayBBPAAg4AgrgTgee#1VoBsA4a54gWAAWgQReI",
"YuLyrTsA4aeggAgg4r4kI31f0rgALWLoogAkSkarBCsPgTcssL4k7ekagarggygcrkg1PkQscg4AgLcQAk.XagAgN73#sNyQa3vay3gBrCLAgWary4AgeC0usBNashsoQ4kBTAykXkqm",
"cagTpWrn44JaQaar3kC.7#fPrALLPcAAWWoQgaJ3kCgMgcWgrs#PA3N7Ierg4rQQ3yt034LQggQAAgcQAX4oXeaJlNscyrny3ayk4aayrSscAgAg3AallLVcaTLQcQacWLQNkSeauYfu",
"ysPcAAa4gg3eeNaaQ3kVCVPrnPcngAALgLoJqokkBky#QWcQAWAQLPPorXxl3gyBXt#aasArrAgAAcgAgC#DAgJlycAy3WraaaaNgargaCWgyQWaa3XoNu#ALMA3ayQcTQQJXAStY#Q3",
"MPTyAg4rnaJouVsABW0VACncLT4QccLWWLrrq4A3Rk30aAWrQcAgAgWAAArBCg4lD#yrAcAyg4AgAAAWBN#c4Asa3yQNyQy4aayB44rnyXgcAQarNW1ucAWQg4aBacWWga3cgqaAP5gP",
"ccgQAAn4J3VDL43NhoqQAJNcLAAALTLAgANMPaQAJky0yApygWQQAAAgyA3gLJeo0y3AAygQcAgAcAAAlo0ygcAQykNB4Naa4aaBarygB3aAArJ4uuoQ4XgAAgQ4aWgy3LMQAnvgMcoo",
"QcgATg4XXLqANNPuqc4QAaNNgWWLcWAAyBWoA4cQANluWAgBgAgggQAggQXMLkUQA3QAr4rcgArAAAABJ0LagTgrLovIBakyarryagaggB3nBlowDQ3NTarAAAQarNNcVoQ4Tg3kDsWc",
"cAnWgyeB0sg3a0#TaaQApgJNagcTWLAW3JosNgAy4rlgQrgBTQ4gQQQ4gNlMA3C7arAgrgcnWAQA4AACPqBgWgAWPTg4vC3ayyraJ3aga3k3XVY#vkQrAavQcAAyvLV#P4BsQ4yXPWrQ",
"nn4g37N0La3cu#yB4AQgTAaaAyALgQgaIyAayAgQAcNQ0chagAAgAgAggBysNJkC7agAaccAgArgQgBe#PNWggALcAQcWCSa3ya3gWraCCCAVfLJaWg4N4k3cgrJcDqQ4aLPraaJRWan",
"cAylIyLAkyhqLaygg4aALcQkQra44aWPLmus0#PLWLTyVWLWkAAAgg4AaJoVyBJk77JQr4ccAgAAcWkA#ggLraLW4g4AcaB3raaNcAgae3o0P3CrAA4aBa4XgQaauqyg4cWyra44yq4g",
"Q4k3Josys#043aQAg4AAAAA3goyBqatTOu4ToATPPWAvopLANaQQgArg3CtLvgkJ3S.BcQcgQQ4cL4SD#yWAAWLAcWcrcBaBgB3gAvX3V1uApyyyJJXByBrkagvoogrgcPgBBgQcCWnA",
"n3kgTeTMoWB34ggrngAWWWAa3BaqtcTWVP4LLAccoLTBAPWcABgAAga4RR#NkaJ3kkl74AW4ccAcgkAu4ggrAPAgTAA4r3QW3BQsrJqfjAkiQAcaagrrk3NBeCNLLag4sAyaQAWrXRQg",
"nlLyQN4W4aaggQ4gAAALAc4aPcaMWQluuAToTcPLLcLyroTAgrarrraACWV3aN3Bk3al.lag4ArcaCu#3ggcLLATcgAAQ7#qlaPgQuOL3vasLyyJgTggQaaXXaWrN4acPNkrQgng3Xng",
"isqNyal4gTAgrgW4cATcABo0Lnf0BB7OMgPAAWLWLWr3X3B3g43ryNayIV0JrBRkkBaJkollkA4AkADaagQPPgWcQcAA4eWWCrhDVMNX3Q4gyBB3AgrAaraXgAoAyB3PAkQAQgnga7Q4",
"QOnJaJkXAgQALrWcWAAygqoAXqVgaAlsWTLALATWA3XN#0gcr3lIeaagIoQv4BXkakJe3tLca.er7V#aAgPLAAWLAWAA3yLkNyaQaJk4Qgaa443gAyaa3BrBLnXrLAkTagQg4rgBylB4",
"zqekB3BB3ccQAAcggagooLyJMuLnAQXgosccsLWgk3AO#PLsPMgQLa3ClsraBJk3BBalrOcgLLNl7LogccoWgALgcAgAaA#XpylX44gQaakggaaA4BBBB4r3AgykNgkQcA44agyarJeX",
"Ykv3JkvkCgTcAcrQrosLgrJotPgcAQXIragAggr3yqVq4a4AgQkWWy44CX3r3RB3aka7LuyagQcgl4LQgLAQcAArggcLBcc3AQa3Ja4aagBggNaQ3BB4rANkArgQBaXggr4garaBa4IO",
"slakXkJB3XccTQgLLgggQBc1qaAWggJQyLgQgNvQ#oWrQpcATQap4rAB3LklCJBRa3B7LuBncgcLyloccAAccQQggLoQIT4Q4Qgn3kJa4gB3yJgANgkcyBJgA4r4rBkBaaaBB3Rana.f",
"4XQJXkkJBJJAggATAgQgr3fVQAgAAAvLB#0oqcyLTygAWAggABcLgyT33ssaaSCe3Bk70#3gcWAc4eNcALPLAcgAWggBkoaWQaAgg43kgagcygcga43rrBCAAa4araJarraaBraBrk.t",
"3arXkBakJkJ3AAgayrAa3tugAWAgggXT3ALLTLAayAAAAgQcgaWcQraRNogQgL4BICX7#LkLAWccA4lAcAAgBaAccWL4aPBAQBgQgQArJ3gA3cWaaBBN4B3rarraaaaXrBCkyJCC...t",
"i3BXeaB3RkelgsLcNBBXDfA4Tgg4Ag3syyPcWWgLaAWQQWcW4ALTT4aXaWarQaAccaC7#A3PccWcAABNWAAgALLAgQgJgPNAcagcgQgcgNNBBgara3BBaBBgryarBraCel5akaa3Ba.u",
"RaBeXRkX3JBCXoocg377fqB4Ag4rcAkWgkMsPPWToQgcLWTA3LgQgQgego4NgBrggAAXTyQLcAcAAggCgcWggWAQgQACWLNcAnBQggAg4g4l4QB3BkBBrkagrraraBelozVLQay3ak.u",
"yakXeBRRkJ3Clgg3NLu7QQycaraQAgJAykLsLWWLPLQgAAAayAQgQagXc#aggayByB4BlAsLWcTAcgAaXAoPgaaggrgXWABQg4arQg4a4yelCCeJJk3e4XrrraaBBkI#forB4QAakal0",
"gBBkJeBBJellXeNu2tVJng33RkkN3kkcr3nLLPWcWWLaQQWBrAgAgg4lTWkyQTAAAAQgN3LcAcAcAAgJS33lXellIeeeaQrAAgaNayBXggyrcQQgg3BJJJ3kJkJkCCguP3NgQQgraBlV",
"akk3XeelllCTVfwE#yg3NWrPAQQQQAkAaJ3xJeXXJkJ3lXkJ4QggrNJeLM4TLrrArcg4QvagWLLAAAaeum0qqoPoT43Bgk3g43BkgcoWToutVakRrgQrQa3cQgraXcALyaaAraaBBalW",
"B3eee.IecDfYt0LAgnWNCrPPgrgAyQRRke#fVMcAcAAccN4Bkr43aAa30PBg4r4A4444g4lycAArg4kgz0gocWATALXapaeXgLN#PTyAWsc4ggW3XvBaakgArakeAPyyrBayakaaBkSA",
"kkClkWuzOqAQ4QsLMWgylacggAArBaCahJw#LsAgWcWcAAgga3roqTQlLANrQ4gg4r4r4r47rQaAgCJVoyQP4gAQLW3AQkrLWAakkkQsWnyrQgcWgXXBkJggBkXALgrg4B4BkaaBaala",
"lr#PQuDWaBagsWqqAyaaI3LcgggkkgonoeuAcTggQWQWgAWB3W0T3aBSpQBQaaaAaQaA4QrkkPcL4.sVTrocgLLLMr4srTDPgXXCTWLWggQAQgQrgrXXlXNaJXQLgag3Bg4aaaraBBlk",
"zYuc4k3ynAWQQncWAy3geBoyaeRWVWW3QJVWcLnggcgcQcAkksLaMqPkgaBgagagarrQgr4gB4QaXku04WPAAPqoLagAkuoka4NaaT44gry444Ar4gBrTggkXAsgBrgJaAaaaaBgrRlr",
"tAaByL4SBnag4rpcWQgQXkaC3#D#caNryeoWWAgyAQWgWcaSVfWWqcQrBN4rgQraaQ4r4rgav7lCCMj4BWAAcLoLgaAaooRRyyBv7aQrgar4rra4rrXqcAooBrABaBkJagBgBgygBX#G",
"ikn4WLAy3CvagQWPcgAQCSa1tuWaay4gaXocAcr4gggggBlPfLyNcgyQBaJaAragg4rgac3l3uuVa4AaATcWoooWgaaT#WJAogWAXJggrgagara4g3Bo4gWg4JJayraJNrrgaBrr3gzt",
"BcQcWggg4rCe4gWcgcckU#ZDAN3aQWAQrlPTagraggAAAkrtska4gQccygBBgagygrrrrX.c1Vcr4l4ALcAcLoAAByy#PRaLcQAArIagggaragggrlcWkyggALABgaa3BrarargaeftX",
"cQ4AWQ4QcWA3lvnArWgUgKoXBTQQr4Ag47W4ggAgAAgckyfqNaPTgcWcAygeaggrNaayCeqtor54g3BWLscAccAWk3oLRvTA4rAAgBxBac44gara3guygoWcALcg3BgakrrgBgBkVtyi",
"QaQcrQrcAQAAge7cWgelftXasAraargg47LcQAAaccAaXVVnaccQrATccaBgggrarr3Ca#DgaaAAgkTBALAAcQAaeQhnRgcg4AAAcgCnBBBgkgcAk#qkaL44gnQgaJBakBaargartsBg",
"grQAQQ4gWcQAAByrg3UVuaRcgy3agar4A7sgAgcrWr4XotWaWWcc4ccWcgSVoBBrB3erPo4BQgy44kAN3LWsABge3VLkaLWgAAAAcAka4ragALL3Q#y35QgngrAnrgCB3BrB4BeVoB4Q",
"Qg4cAAAQWgcWglWA47A1Q3nABBarggcgA7T44Lca4Bllu#gWccAQgWcALaAoLc43eBr34ayQr4AggXQyygLc4reCoV4B4LAgcgAAAggJgrooAaaS#qk4A4gQAgQggrglkBrrakWc4rAc",
"AQrgcgAgPcccg3qRXRDLRyy3aBATrrAgn.gcAcBeSrWNBoALcQrATcgor4#AgAAXeJ3a4arygrQrnJgAcggaCLqJocknoTAAWAWcAAA3Bgc4r4kADQkWgar4gQrcgcgr7vBkka#cyQ4r",
"QrQg4cQgWQcAkPuXlQAJaryagggg4gQrglcAaklyLqcgCgPAAAWc4goPvoVyg#ooakIgA53rQgrArCcAr3ectfLgXyaWcgQcAcAcTcAXUl3kanljVRgQQarArc4A4rg4B.BBk0LyaryQ",
"QQagryAgcgcQ.YVBQyyaya4ayggrr444g.rekAVLsWQg3loLWccQrqokWD0cLqLoqklgTAd4ATc4rerkaLttOnJQRk4cQgAcWLcccreesVckkl.tABsngragyrAagrrQrLakLqgyyrgg"
};
