/* XPM */
static char * icon_binary_ms_xpm[] = {
"32 32 18 1",
" 	c none",
".	c #000000000000",
"X	c #79E77DF779E7",
"o	c #FFFFFFFFFFFF",
"O	c #28A228A228A2",
"+	c #514455555144",
"@	c #AEBAAAAAAEBA",
"#	c #A699AAAAA699",
"$	c #C71BC30BC71B",
"%	c #D75CD75CD75C",
"&	c #861700000000",
"*	c #FFFF00000000",
"=	c #000082070000",
"-	c #0000FFFF0000",
";	c #000000008617",
":	c #861782070000",
">	c #FFFFFFFF0000",
",	c #00000000FFFF",
" .............................. ",
" XoO.........................o.X",
" ++..........................X.+",
" ..............................O",
" +@@##@@@@@@@@@@@@@@@@@@@@@@@@@O",
" +@############################O",
" +@#$$$$$$$$$$$$$$$$$$$$$$$$###O",
" +@#$$$$$$$$$$$$$$$$$$$$$$$$###O",
" +@#$$$$$$$$$$$$$$$$$$$$$$$$###O",
" +@#$$$$$$$$$$$$$$$$$$$$$$$$#%#O",
" +@#$$$$$$$$$$$$$$$.....$$$$###O",
" +@#$$.$$$$$$$$$$........$$$@#@O",
" +@#$$.$.$..$..$..&*&=-=..$$@#@O",
" +@#$$&$$$..$.$$..**&=--..$$@#@O",
" +@#$$*$&$$$$$&$..**&=--..$$##@O",
" +@#$$$$&$&&$&*$..&....=..$$##@O",
" +@#$$.$$$&&$&$$..........$$##@O",
" +@#$$.$.$$$$$.$...;;:>:..$$##@O",
" +@@$$$$.$..$..$..,,;:>>..$$##@O",
" +#@$$,$$$..$.$$..,,;:>>..$$###O",
" +#%$$;$;$$$$$,$..,;..::..$$###O",
" +@#$$$$;$;;$;;$..........$$##@O",
" +@#$$.$.$..$..$..........$###@O",
" +@#$$$$.$..$..$..$$$$$$..$###@O",
" +@##$$$$$..$.$$$$$$$$$$$$$###@O",
" +@@$$$$$$$$$$$$$$$$$$$$$$$###@O",
" +@@$$$$$$$$$######$$$$$$$$$##@O",
" +@@@@@@@@#################@@#@O",
" +@@@@@@@@####################@O",
" +@@@@@@@@@@@@@@@@@@@@@@@@@@##@O",
" O+++++++++++++++++++++++++++++O",
"   #++++++++++++++++++++++++++++"};
