/* XPM */
static char * gz_xpm[] = {
"32 32 8 1",
" 	c none",
".	c #000000000000",
"X	c #BEFBBEFBBEFB",
"o	c #EFBEEBADEFBE",
"O	c #71C682079658",
"+	c #28A249244924",
"@	c #BEFBBAEABEFB",
"#	c #F7DEF7DEF7DE",
"    ..................          ",
"    .XXXXXXXXXXXXXXXX..         ",
"    .Xoooo............X.        ",
"    .Xooo.OOOOOOOOOOO.XX.       ",
"    .Xooo.OOOO........XXX.      ",
"    .Xooo.OOO.ooooooo.XXXX.     ",
"    .Xooo.OOO.ooooooo.......    ",
"    .Xoo.......ooooooo.++.X..   ",
"    .Xoo.......ooooooo.OO.X..   ",
"    .Xoooooooooooooooo.OO.X..   ",
"    .Xoooooooooooooooo.OO.X..   ",
"    .Xoooooooooooooooo.OO.X..   ",
"    .Xoooooooooooooooo.OO.X..   ",
"    .Xoooooooooooooooo.OO.X..   ",
"    .Xoooooooooooooooo.OO.X..   ",
"    .Xoooooooooooooooo.OO.X..   ",
"    .Xoo.......ooooooo.OO.X..   ",
"    .Xoo.......ooooooo.OO.X..   ",
"    .Xooo.....oooooooo.OO.X..   ",
"    .Xoooo.@.ooooooooo.OO.X..   ",
"    .Xoooo.@.oooooooo.OOO.X..   ",
"    .Xoo..............OOO.X..   ",
"    .Xoo.OOOOOOOOOOOOOOO.oX..   ",
"    .Xoo................ooX..   ",
"    .Xoooo.@.oooooooooooooX..   ",
"    .Xoooo...oooooooo#####X..   ",
"    .X.ooo.@.ooo.oooo#####X..   ",
"    .X...........oooo#####X..   ",
"    .X.ooo...ooo.oooo#####X..   ",
"    .XXXXXXXXXXXXXXXXXXXXXX..   ",
"    .........................   ",
"    .........................   "};
