/* XPM */
static char *Formatiertertext[] = {
/* width height num_colors chars_per_pixel */
"    32    32       17            1",
/* colors */
". c #000000",
"# c #800000",
"a c #008000",
"b c #808000",
"c c #000080",
"d c #800080",
"e c none",
"f c #c0c0c0",
"g c #a0a0a4",
"h c #808080",
"i c #ff0000",
"j c #00ff00",
"k c #ffff00",
"l c #0000ff",
"m c #ff00ff",
"n c #00ffff",
"o c #ffffff",
/* pixels */
"eeee..e..e..e..e..e..e..e.eeeeee",
"eeehohhohhohhohhohhohhohhoh.eeee",
"eeho.oo.oo.oo.oo.oo.oo.ooh.f.eee",
"eeho.oo.oo.oo.oo.oo.oo.ooh.f.eee",
"eehoooooooooooooooooooooof.f.eee",
"eehoohhh.....oooooooooooof.f.eee",
"eehoohoo.lll.oooooooooooof.f.eee",
"eehoohoo.lll.oooooooooooof.f.eee",
"eehoohoo.kkk.oooooooooooof.f.eee",
"eehooh...kkk.ooccccccccoof.f.eee",
"eehoohoo.kkk.oooooooooooof.f.eee",
"eehooh.......ooccccccccoof.f.eee",
"eehoohii.ooo.oooooooooooof.f.eee",
"eehoo........ooccccccccoof.f.eee",
"eehoooooooooooooooooooooof.f.eee",
"eehooccccccccccccccccccoof.f.eee",
"eehoooooooooooooooooooooof.f.eee",
"eehooccccccccccccccccccoof.f.eee",
"eehoooooooooooooooooooooof.f.eee",
"eehooccccccccccccccoooioof.f.eee",
"eehooooooooooooooooooiifof.f.eee",
"eehooccccccccccccoooififof.f.eee",
"eehooooooooooooooooifoifof.f.eee",
"eehooccccccccccoooifooifof.f.eee",
"eehooooooooooooooiiiiiifof.f.eee",
"eehooccccccccoooifffffifof.f.eee",
"eehooooooooooooifoooooifof.f.eee",
"eehooccccccoooiiiooooiiiof.f.eee",
"eehoooooooooooofffooooffff.f.eee",
"eehoooooooooooooooooooooof.f.eee",
"eeehfffffffffffffffffffff.f.eeee",
"eeee.......................eeeee"
};