/* XPM */
static char * icon_document_lyx_xpm[] = {
"32 32 9 1",
" 	c none",
".	c #000000000000",
"X	c #FFFFFFFFFFFF",
"o	c #861782078617",
"O	c #C71BC30BC71B",
"+	c #00000000FFFF",
"@	c #FFFFFFFF0000",
"#	c #000000008617",
"$	c #FFFF00000000",
"    .. .. .. .. .. .. .. .      ",
"    XooXooXooXooXooXooXooX .    ",
"   o.XX.XX.XX.XX.XX.XX.XXo.O.   ",
"   o.XX.XX.XX.XX.XX.XX.XXo.O.   ",
"   oXXXXXXXXXXXXXXXXXXXXXO.O.   ",
"   oXooo.....XXXXXXXXXXXXO.O.   ",
"   oXoXX.+++.XXXXXXXXXXXXO.O.   ",
"   oXoXX.+++.XXXXXXXXXXXXO.O.   ",
"   oXoXX.@@@.XXXXXXXXXXXXO.O.   ",
"   oXo...@@@.XX########XXO.O.   ",
"   oXoXX.@@@.XXXXXXXXXXXXO.O.   ",
"   oXo.......XX########XXO.O.   ",
"   oXo$$.XXX.XXXXXXXXXXXXO.O.   ",
"   oX........XX########XXO.O.   ",
"   oXXXXXXXXXXXXXXXXXXXXXO.O.   ",
"   oX##################XXO.O.   ",
"   oXXXXXXXXXXXXXXXXXXXXXO.O.   ",
"   oX##################XXO.O.   ",
"   oXXXXXXXXXXXXXXXXXXXXXO.O.   ",
"   oXX...XXXXXXXXXXXXXXXXO.O.   ",
"   oXXX.XXXXXXXXX...X..XXO.O.   ",
"   oXXX.XXX.XXX.XX.XX.XXXO.O.   ",
"   oXXX.XXX.XXX.XXX..XXXXO.O.   ",
"   oXXX.XXXX.X.XXXX..XXXXO.O.   ",
"   oXXX.XXXX.X.XXXX..XXXXO.O.   ",
"   oXXX.XX.XX..XXX.XX.XXXO.O.   ",
"   oXX.....XX.XXX..XX..XXO.O.   ",
"   oXXXXXXXXX.XXXXXXXXXXXO.O.   ",
"   oXXXXXXX..XXXXXXXXXXXXO.O.   ",
"   oXXXXXXXXXXXXXXXXXXXXXO.O.   ",
"    OOOOOOOOOOOOOOOOOOOOO.O.    ",
"    .......................     "};
