/* XPM */
static char * archiv_xpm[] = {
"32 32 4 1",
" 	c none",
".	c #000000000000",
"X	c #FFFFFFFFFFFF",
"o	c #BEFBBEFBBEFB",
"    ..................          ",
"    .XXXXXXXXXXXXXXXX..         ",
"    .XXXXXXXXXXXXXXXX.o.        ",
"    .XXXXXXXXXXXXXXXX.oo.       ",
"    .XXXXXXXXXXXXXXXX.ooo.      ",
"    .XXXXXXXXXXXXXXXX.oooo.     ",
"    .XXXXXXXXXX.XXX.X.ooooo.    ",
"    .X..XX..X.X..XXXX.......    ",
"    .XXX.X.X.XX.X.X.X.o.ooo.    ",
"    .X...X.XX.X.X.X.XX.oooo.    ",
"    .XXXXXXXXXXXXXXXXXXXXXX.    ",
"    .X....................X.    ",
"    .X.oooooooooooooooooo.X.    ",
"    .X.oooooo........oooo.X.    ",
"    .X.ooooo.oooooooo.ooo.X.    ",
"    .X.oooo.ooooooooo.ooo.X.    ",
"    .X.oooo.oooooooooo.oo.X.    ",
"    .X.ooo.ooooooooooo.oo.X.    ",
"    .X.ooo.oooooo.....o.o.X.    ",
"    .X.oo.oooooo........o.X.    ",
"    .X.oo.ooooo.........o.X.    ",
"    .X.o....ooo.........o.X.    ",
"    .X.o.....oo....o....o.X.    ",
"    .X.o..o..oo.........o.X.    ",
"    .X.o.....oo.........o.X.    ",
"    .X.oo...oooo.......oo.X.    ",
"    .X.oooooooooo.....ooo.X.    ",
"    .X.oooooooooooooooooo.X.    ",
"    .X....................X.    ",
"    .XXXXXXXXXXXXXXXXXXXXXX.    ",
"    ........................    ",
"     .......................    "};
