/* XPM */
static char * icon_document_print_xpm[] = {
"32 32 12 1",
" 	c none",
".	c #000000000000",
"X	c #FFFFFFFFFFFF",
"o	c #861782078617",
"O	c #C71BC30BC71B",
"+	c #00000000FFFF",
"@	c #FFFFFFFF0000",
"#	c #000000008617",
"$	c #FFFF00000000",
"%	c #79E700000000",
"&	c #B6DAAAAAAEBA",
"*	c #9E7996589658",
"    .. .. .. .. .. .. .. .      ",
"    XooXooXooXooXooXooXooX .    ",
"   o.XX.XX.XX.XX.XX.XX.XXo.O.   ",
"   o.XX.XX.XX.XX.XX.XX.XXo.O.   ",
"   oXXXXXXXXXXXXXXXXXXXXXO.O.   ",
"   oXooo.....XXXXXXXXXXXXO.O.   ",
"   oXoXX.+++.XXXXXXXXXXXXO.O.   ",
"   oXoXX.+++.XXXXXXXXXXXXO.O.   ",
"   oXoXX.@@@.XXXXXXXXXXXXO.O.   ",
"   oXo...@@@.XX########XXO.O.   ",
"   oXoXX.@@@.XXXXXXXXXXXXO.O.   ",
"   oXo.......XX########XXO.O.   ",
"   oXo$$.XXX.XXXXXXXXXXXXO.O.   ",
"   oX........XX########XXO.O.   ",
"   oXXXXXXXXXXXXXXXXXXXXXO.O.   ",
"   oXXXXXX........XXXXXXXO.O.   ",
"   oXXXXXX.XXXXXX.XXXXXXXO.O.   ",
"   oXXXXX.XX%%%%XX.XXXXXXO.O.   ",
"   oXXXXX.XXXXXXXX.XXXXXXO.O.   ",
"   oXXXX.XX%%%%%%XX.XXXXXO.O.   ",
"   oXXXX.XXXXXXXXXX.XXXXXO.O.   ",
"   oX..................XXO.O.   ",
"   oX.&&&&&&&&&&&&&&&&.XXO.O.   ",
"   oX.&&&&&&&&&&&####&.XXO.O.   ",
"   oX.&&&&&&&&&&&&&&&&.XXO.O.   ",
"   oXX.................XXO.O.   ",
"   oXX.**************.XXXO.O.   ",
"   oXX.**************.XXXO.O.   ",
"   oXXX..............XXXXO.O.   ",
"   oXXXXXXXXXXXXXXXXXXXXXO.O.   ",
"    OOOOOOOOOOOOOOOOOOOOO.O.    ",
"    .......................     "};
