/* XPM */
static char * icon_binary_xpm[] = {
"32 32 14 1",
" 	c none",
".	c #79E77DF779E7",
"X	c #FFFFFFFFFFFF",
"o	c #28A228A228A2",
"O	c #000000000000",
"+	c #514455555144",
"@	c #AEBAAAAAAEBA",
"#	c #38E33CF338E3",
"$	c #69A669A669A6",
"%	c #D75CD75CD75C",
"&	c #A699AAAAA699",
"*	c #86177DF78617",
"=	c #965896589658",
"-	c #C71BBEFBC71B",
" .............................. ",
" .XoOOOOOOOOOOOOOOOOOOOOOOOOOX+.",
" ++OOOOOOOOOOOOOOOOOOOOOOOOOO.O+",
" OOOOOOOOOOOOOOOOOOOOOOOOOOOOOOo",
" +@@@@@@@@@@@@@@@@@@@@@@@@@@@@@o",
" +@OOOOOOOOOOOOOOOOOOOOOOOOOO.@o",
" +@#.$...%&&&&&@&&&&&&&@&&&&+%@o",
" +@o@++++&+++++.+++++++.++++O%@o",
" +@#.$...*+++++*+++++++*+++++%@o",
" +@++.+++@@@@@@@@@@@@@@@@@@@@%@o",
" +@#.$+++@+.@.@@@.+.@.@@@.+@@%@o",
" +@o@+@@@@@@@@@@@@@@@@@@@@@@@%@o",
" +@#+$+++@.=@=.@@=.=@@@@@=.@@%@o",
" +@.X.+++@+.@.+@@.+.@@@@@.+@@%@o",
" +@+++...@@@@@@@@@@@@@@@@@@@@%@o",
" +@.X.+++@+.@.@@@.+.@.@@@.+@@%@o",
" +@+++...@.=@=@@@=.=@=@@@=.@@%@o",
" +@&XXXXXXXXXXXXXXXXXXXXXXXXX%@o",
" +@@@@@@@@@@@@@@@@@@@@@@@@@@@@@o",
" +@@@@@@@@@@@@@@@@@@@@@@@@@@@@@o",
" +@%.=@=.=@@@@.=@=.@+&&&&&&&&@@o",
" +@%O.@.+.@@@@+.@.+@+XXXXXXXX@@o",
" +@$+@@@@@@@@@@@@@@@.........@@o",
" +@X+.@.+@@@@@@.@.+@+XXXXXXXX@@o",
" +@.O=@=.@@@@@@=@=.@.%%%%%%%%@@o",
" +@@@@@@@@@@@@@@@@@@@@@@@@@@@@@o",
" +@@@@@@@@%%%%%@@%%%%%.-%%%%%=@o",
" +@@@@@@@@X@@@@+@%@@@@O%@@@@@+@o",
" +@@@@@@@@&++++o@.++++O@++++++@o",
" +@@@@@@@@@@@@@@@@@@@@@@@@@@@@@o",
" o+++++++++++++++++++++++++++++o",
"   &++++++++++++++++++++++++++++"};
