/* XPM */
static char *trashfull[] = {
/* width height num_colors chars_per_pixel */
"    48    48       15            1",
/* colors */
". c #007f00",
"# c None",
"a c #1f7f00",
"b c #5f5f3f",
"c c #5f7f3f",
"d c #5fbf3f",
"e c #7f7f3f",
"f c #7f7f7f",
"g c #7fbf3f",
"h c #7fbf7f",
"i c #9f9f7f",
"j c #bfbf7f",
"k c #bfbfff",
"l c #ffbfff",
"m c #ffffff",
/* pixels */
"############kkkkkkiiiii####iiiii################",
"#########kkkibiiikmmmllk#iimmmlkii##############",
"######kkkibbbimkmmmmmmlkimmmmmmlkki#############",
"##kkkkibbbmlimikmmmmmmlikmmmmmmmlki#############",
"#kiibbbbmmmlimikmmmmmmlikmmmmiimmlki############",
"#ikkkibmmmllkimikmmmmmlikmmmimkbmlki############",
"#ikkkkkkilllkimmikmmmmliiimmimmkbmkik###########",
"#ikkkkkkkkkikimmmikmmmliiiiimmmlkiiikkkk########",
"#ikkkkkkkkkkkkillmikmmliiiiimmmmlkkiiikkkkk#####",
"#ikkkkkkkkkkkkkkkiliklliiibmmmmmmlkkbmbmkkjieb##",
"#ikkkkkkkkkkkkkkkkkkikliibmmmmmmmmlkkimmjiebbb##",
"##ikkkkkkkkkkkkkkkkkkkkiikmmmmmmmmlkkijiebbbbb##",
"##ikkkkkkkkkkkkkkkkkkkkkkkimmmmmmmlljiebbbbbbb##",
"##ikkkkkkkkkkkkkkkkkkkkkkkkkkmmmmmjiebbbbbbbbb##",
"##ikkkkkkkkkkkkkkkkkkkkkkkkkkkkkjiebbbbbbbbbbb##",
"##ikkkkkkkkkkkkkkkkkkkkkkkkkkkkkebbbbbbbbbbbb###",
"###ikkkkkkkggaaackkkkkkkkkkkkkkiebbbbbbbbbbbb###",
"###ikkkkkkkccaa...ckkkkkkkkkkkkibbbbbbbbbbbbb###",
"###ikkkkkchkkkkga..ahkckkkkkkkkibbbbbbbbbbbbb###",
"###ikkkkdackkkkkkc..acchkkkkkkkfbbbbbbbbbbbb####",
"###ikkkda..hkkkkkkh...chkkkkkkkebbbbbbbbbbbb####",
"####ikka...chkkkkkkg..ahkkkkkkkebbbbbbbbbbbb####",
"####ikkkk...ckkkkkkc...hkkkkkkkebbbbbbbbbbbb####",
"####ikkkka.g.kkkkkccc..ckkkkkkibbbbbbbbbbbb#####",
"####ikkkkc.hkkkkkkkhhhcckkkkkkibbbbbbbbbbbb#####",
"####ikkkkh.ekkkkkkkkkkkkkkkkkkfbbbbbbbbbbbb#####",
"#####ikkkkackkkkkkkkkkkkhkkkkkebbbbbbbbbbbb#####",
"#####ikkkkd.kkkkkkkkkkkhekkkkkebbbbbbbbbbb######",
"#####ikkkkkackkkkkkkkkkgekkkkkebbbbbbbbbbb######",
"#####ikkkkkgakkkkkkkkkkcekkkkibbbbbbbbbbbb######",
"#####ikkkkkkcekkkkkkkkkackkkkfbbbbbbbbbbbb######",
"######ikkkkkkckkkkkckkg.ckkkkfbbbbbbbbbbb#######",
"######ikkkkkkhckkkcckha.ekkkkebbbbbbbbbbb#######",
"######ikkkkkkkhhke.cca..fkkkkebbbbbbbbbbb#######",
"######ikkkkkkkkkaa.....aikkkkebbbbbbbbbbb#######",
"######ikkkkkkkkkkc....afkkkkibbbbbbbbbbb########",
"#######kkkkkkkkkkkc.acfkkkkkibbbbbbbbbbb########",
"#######iikkkkkkkkkkeackkkkkkfbbbbbbbbbbb########",
"#######bbiikkkkkkkkkhakkkkkkebbbbbbbbbbb########",
"#########bbiikkkkkkkkkkkkkkkebbbbbbbbbb#########",
"###########bbiikkkkkkkkkkkkkebbbbbbbbbb#########",
"#############bbiikkkkkkkkkkibbbbbbbbbbb#########",
"###############bbiikkkkkkkkfbbbbbbbbbb##########",
"#################bbiikkkkkkfbbbbbbbbbb##########",
"###################bbiikkkkebbbbbbbb############",
"#####################bbiikkebbbbbb##############",
"#######################bbiiebbbb################",
"#########################bbbbb##################"
};
