/* XPM */
static char * icon_document_tex_xpm[] = {
"32 32 10 1",
" 	c none",
".	c #000000000000",
"X	c #FFFFFFFFFFFF",
"o	c #861782078617",
"O	c #C71BC30BC71B",
"+	c #00000000FFFF",
"@	c #FFFFFFFF0000",
"#	c #000000008617",
"$	c #FFFF00000000",
"%	c #79E700000000",
"    .. .. .. .. .. .. .. .      ",
"    XooXooXooXooXooXooXooX .    ",
"   o.XX.XX.XX.XX.XX.XX.XXo.O.   ",
"   o.XX.XX.XX.XX.XX.XX.XXo.O.   ",
"   oXXXXXXXXXXXXXXXXXXXXXO.O.   ",
"   oXooo.....XXXXXXXXXXXXO.O.   ",
"   oXoXX.+++.XXXXXXXXXXXXO.O.   ",
"   oXoXX.+++.XXXXXXXXXXXXO.O.   ",
"   oXoXX.@@@.XXXXXXXXXXXXO.O.   ",
"   oXo...@@@.XX########XXO.O.   ",
"   oXoXX.@@@.XXXXXXXXXXXXO.O.   ",
"   oXo.......XX########XXO.O.   ",
"   oXo$$.XXX.XXXXXXXXXXXXO.O.   ",
"   oX........XX########XXO.O.   ",
"   oXXXXXXXXXXXXXXXXXXXXXO.O.   ",
"   oX%%%%%%%%XXX%%XXXX%%XO.O.   ",
"   oX%%%%%%%%XXXX%%XXX%%XO.O.   ",
"   oXXXX%%XXXXXXX%%XX%%XXO.O.   ",
"   oXXXX%%XXXXXXXX%%X%%XXO.O.   ",
"   oXXXX%%XX%%%%%X%%%%XXXO.O.   ",
"   oXXXX%%XX%%%%%XX%%%XXXO.O.   ",
"   oXXXX%%XX%%XXXXX%%%XXXO.O.   ",
"   oXXXX%%XX%%XXXXX%%%XXXO.O.   ",
"   oXXXX%%XX%%%%XX%%X%%XXO.O.   ",
"   oXXXX%%XX%%%%XX%%X%%XXO.O.   ",
"   oXXXX%%XX%%XXX%%XXX%%XO.O.   ",
"   oXXXX%%XX%%XXX%%XXX%%XO.O.   ",
"   oXXXXXXXX%%XXXXXXXXXXXO.O.   ",
"   oXXXXXXXX%%%%%XXXXXXXXO.O.   ",
"   oXXXXXXXX%%%%%XXXXXXXXO.O.   ",
"    OOOOOOOOOOOOOOOOOOOOO.O.    ",
"    .......................     "};
