/* XPM */
static char * icon_html_xpm[] = {
"32 32 62 1",
" 	c none",
".	c #000000000000",
"X	c #30C251445965",
"o	c #30C259655965",
"O	c #B6DAB2CAB6DA",
"+	c #186130C230C2",
"@	c #38E359655965",
"#	c #38E359656185",
"$	c #38E361856185",
"%	c #208138E338E3",
"&	c #410371C671C6",
"*	c #208141034103",
"=	c #28A241034103",
"-	c #28A241034924",
";	c #410379E779E7",
":	c #38E3659569A6",
">	c #492471C671C6",
",	c #492479E78617",
"<	c #410369A671C6",
"1	c #28A249244924",
"2	c #514482078617",
"3	c #A699BEFBC71B",
"4	c #51448E389658",
"5	c #596592489658",
"6	c #9658C30BCF3C",
"7	c #514486178E38",
"8	c #E79DEFBEEFBE",
"9	c #965892489658",
"0	c #596571C671C6",
"q	c #30C251445144",
"w	c #51448A289658",
"e	c #71C67DF779E7",
"r	c #AEBACB2BCF3C",
"t	c #FFFFFBEEFFFF",
"y	c #CF3CDB6CDF7D",
"u	c #618575D671C6",
"i	c #59659A69A699",
"p	c #BEFBD34CD75C",
"a	c #8E38BAEAC71B",
"s	c #61859A69A699",
"d	c #6185A289AEBA",
"f	c #61859A69AEBA",
"g	c #69A6A699AEBA",
"h	c #8E388A288E38",
"j	c #69A6B2CABEFB",
"k	c #C71BDF7DE79D",
"l	c #86178A288E38",
"z	c #CF3CE79DEFBE",
"x	c #71C6B2CAC71B",
"c	c #71C6BAEAC71B",
"v	c #8617CB2BD75C",
"b	c #71C6BAEACF3C",
"n	c #79E782078E38",
"m	c #79E7C30BCF3C",
"M	c #9E79CB2BDF7D",
"N	c #A699A699AEBA",
"B	c #596561856185",
"V	c #514451445144",
"C	c #514479E78617",
"Z	c #861782078617",
"A	c #AEBABAEABEFB",
"S	c #492449244924",
"    ..................          ",
"    .XXXooooooooooooX..         ",
"    .oooooooooooooooo.O.        ",
"    .XXXoooo+++o++++X.OO.       ",
"    .@@@@@@@@@@@@@@@@.OOO.      ",
"    .###$$$$$$$$$$$$#.OOOO.     ",
"    .$%%$%%%$%%%%%$%%.......    ",
"    .&&&&&&&&&&&&&&&&******..   ",
"    .&==------;--;--=-::-$$..   ",
"    .>>>>,,,,,,,,,,,,,,<<<:..   ",
"    .,===1,11,1111;;=11==;;..   ",
"    .2333422222225333633222..   ",
"    .71X8907qqqqwq11Xe77777..   ",
"    .wwwrttrw4444444wywwwww..   ",
"    .554u8990Xii55i55y45555..   ",
"    .ii5p53ttaiiiiiiiy5iiii..   ",
"    .sssus#u980#d###sy##sss..   ",
"    .ddfpdddpt8adddddyfdddf..   ",
"    .gggeg:::9tha:::geggggg..   ",
"    .jjgpjjjjj8ttjjjjkjjjjg..   ",
"    .jjjej<<<j0l9zxjjzjjjjj..   ",
"    .ccxkcccccxv8t8cxzxccxx..   ",
"    .c<<e<<<<<b<0t9n<n<<<cc..   ",
"    .mmmkvvMMMMMMktttzmvmmm..   ",
"    .6u0lNBBBVVhVBBBup3uC6v..   ",
"    .NZZyZZZZZZZZZZZZZZZNAr..   ",
"    .ZSB9eBZSSSSSSZSSSSSZZZ..   ",
"    .ZhZZZZZZZZZZZZZZZZZZZZ..   ",
"    .hhhhhhhhhhVVhhhhhhhhhh..   ",
"    .hhhhhhhhhhhhhhhhhhhhhh..   ",
"    .........................   ",
"     ........................   "};
