/* XPM */
static char * icon_folder_binary_xpm[] = {
"32 32 16 1",
" 	c none",
".	c #861782078617",
"X	c #FFFFFFFFFFFF",
"o	c #FFFFFFFF0000",
"O	c #C71BC30BC71B",
"+	c #000000000000",
"@	c #861782070000",
"#	c #000000008617",
"$	c #FFFF00000000",
"%	c #861700000000",
"&	c #00000000FFFF",
"*	c #000082070000",
"=	c #0000FFFF0000",
"-	c #0000FFFFFFFF",
";	c #861700008617",
":	c #FFFF0000FFFF",
"                                ",
"   ........                     ",
"  .XXXXXXXX.                    ",
" .XoOoOoOoOo.                   ",
".OOOOOOOOOOOO.............      ",
".XXXXXXXXXXXXXXXXXXXXXXXXX+     ",
".XoOoOoOoOoOoOoOoOoOoOoOoO@+    ",
".XOoOoOoOoOoOoOoOoOoOoOoOo@+    ",
".XoOoOoOoOoOoOoOoOoOoOoOoO@+    ",
".XOoOoOoOoOoOoOoOoOoOoOoOo@+    ",
".XoOoOoO.......................+",
".XOoOoOo.OOOOOOOOOOOOOOOOOOOOOO+",
".XoOoOoO.O##############X+X+X+O+",
".XOoOoOo.O##############++++++O+",
".XoOoOoO.OOOOOOOOOOOOOOOOOOOOOO+",
".XOoOoOo.OXXXXXXXXXXXXXXXXXXXXO+",
".XoOoOoO.OXXXXXXXXXXXXXXXXXXXXO+",
".XOoOoOo.OXXXX$%XXX&XXXXX*=XXXO+",
".XoOoOoO.OXX%$o%XXX-&&XX***=XXO+",
".XOoOoOo.OXXO%%XXX;O;;XXX=&&XXO+",
".XoOoOoO.OXXXXXXXXXXXXXXXXXXXXO+",
".XOoOoOo.OXXXXXXXXXXXXXXXXXXXXO+",
".@@@@@@@.OXXXXXXXXXXXXXXXXXXXXO+",
" +++++++.OXXX=&XXXXX&XXX%$XXXXO+",
"        .OXX=*&&XX&&-XXX%o::XXO+",
"        .OXX&&=XXX;;O;XXX:%OXXO+",
"        .OXXXXXXXXXXXXXXXXXXXXO+",
"        .OXXXXXXXXXXXXXXXXXXXXO+",
"        .OXXXXXXXXXXXXXXXXXXXXO+",
"        .OOOOOOOOOOOOOOOOOOOOOO+",
"        ++++++++++++++++++++++++",
"                                "};
