/* XPM */
static char *moveymainmiddle_xpm[] = {
/* width height num_colors chars_per_pixel */
"    14    14        3            1",
/* colors */
". c #666666",
"# c #b3b3b3",
"a c #e5e5e5",
/* pixels */
"..##########aa",
"..##########aa",
"..##########aa",
"..##########aa",
"..##########aa",
"..##########aa",
"..##########aa",
"..##########aa",
"..##########aa",
"..##########aa",
"..##########aa",
"..##########aa",
"..##########aa",
"..##########aa"
};
