/* XPM */
static char * movexmainleft_p_xpm[] = {
"14 14 4 1",
" 	c #666666",
".	c #b3b3b3",
"X	c #e5e5e5",
"o	c #cccccc",
"              ",
"              ",
"  ............",
"  ......... X.",
"  ......   oX.",
"  ...   ooooX.",
"  .  oooooooX.",
"  .XXoooooooX.",
"  ...XXXooooX.",
"  ......XXXoX.",
"  .........XX.",
"  ............",
"  XXXXXXXXXXXX",
" XXXXXXXXXXXXX"};
