/* XPM */
static char * moveymainbottom_p_xpm[] = {
"14 14 4 1",
" 	c #666666",
".	c #b3b3b3",
"X	c #e5e5e5",
"o	c #cccccc",
"  ..........XX",
"  .        .XX",
"  . ooooooX.XX",
"  .. ooooX..XX",
"  .. ooooX..XX",
"  .. ooooX..XX",
"  ... ooX...XX",
"  ... ooX...XX",
"  ... ooX...XX",
"  .... X....XX",
"  .... X....XX",
"  ..........XX",
"  XXXXXXXXXXXX",
" XXXXXXXXXXXXX"};
