/* XPM */
static char *audio[] = {
/* width height num_colors chars_per_pixel */
"    48    48       63            1",
/* colors */
". c #020204",
"# c #329664",
"a c #7a222c",
"b c #0a4a04",
"c c #9e9a9c",
"d c #6a521c",
"e c #4a1a14",
"f c #6ac28c",
"g c #9e5624",
"h c #75888c",
"i c #0a6274",
"j c #122204",
"k c #686b75",
"l c #424a1c",
"m c #a6d274",
"n c #968aec",
"o c #7262c4",
"p c #423204",
"q c #76768c",
"r c #7a4274",
"s c #de923c",
"t c #828a84",
"u c #0e1215",
"v c #1a3a6c",
"w c #3a722c",
"x c #3a8acc",
"y c #624234",
"z c #127a1c",
"A c #9662d4",
"B c #2a220c",
"C c #6a769c",
"D c #5a5a54",
"E c #323232",
"F c #5a72d4",
"G c #cec23c",
"H c #a6ba44",
"I c #9e7a8c",
"J c #8e7e34",
"K c #5a0a6c",
"L c #be5294",
"M c #eea29c",
"N c #96d69c",
"O c #22623c",
"P c #3262ac",
"Q c #3aa294",
"R c #421e44",
"S c #c6929c",
"T c #529234",
"U c #8e9abc",
"V c #7a4ab4",
"W c #3d4b4c",
"X c #7a4e4c",
"Y c #02262c",
"Z c #423a4c",
"0 c #86767c",
"1 c none",
"2 c #124a2c",
"3 c #122e1c",
"4 c #8e8e9c",
"5 c #12020c",
"6 c #6a4a44",
"7 c #86769c",
"8 c #89899c",
/* pixels */
"11111111EE11111111111111111111111111111111111111",
"1111UD....111111JJJJKKJJJJrrrJ111111111111111111",
"11........1111JJrKKKKKKJrKKKrTGJ1111111111111111",
"11E.......11JKKKrrrrJJJJdJzp...JJJJ1111111111111",
"11k.....cZDkKKKrgJJJgJgjB.u.....BTJJJ11111111111",
"111.EWWWWkk6yrrgJrB5u...........3HwJJJJ111111111",
"111E.kZWDkyyyr...................OlHHTJJ11111111",
"1111.KWkDrrrrrE..........Bblllz.jWwDfmffD1111111",
"1111.kDrrKrIsId.....BppBpppllllu.wlTHHHmkk111111",
"1111.WrrKKIsssJ5BZlplezplpzpzll3.WwlfHfmNDh11111",
"1111E.IKKKLsLsIe.dplyppBpBpllTJTuwlTmNfmfm6h1111",
"1111r.MKKKsMsIs6.XylppzdzJJJTJHH.lTwfmmfmNfD1111",
"111rr.XdKKsIsIgI.dadgJJJgJJTHTH#E.TTHfmmNmNT1111",
"111rI5ZLKKLMsIsI5edZJJJgdJJJHJ#Hw5mOfmNNNNNNW111",
"11rrM5.sKKMsMsLse.glgJgddJTJH#Hmm.mwTNNNNNNNDk11",
"11r....MKKMMMMsMd.J6JgJJdJJTHH#m#uNTwNmNNNNNfE11",
"1E.....MKXMMLsMsI5XygJJJJJJHTHE.u..mTNNNNNNNNO11",
"1......MKRMMMMMMs.pXyS88N8mJ#l.....NTNNNNNNfNTW1",
"1.....BR66LMLMLMM..8X8XDXDk7t......NTNNNffNfffu1",
"1Z....6y6RMLMLy5...83ZWWkDkkh......DzWNfffffO231",
"1reeuyRa6RLMLe.....8EEXDXkXhhB.....wDwffNzj...31",
"1rLLyRRRyrLLLu.....D3Ek33Whh7hY2jw.OwO........OD",
"1rLLXZRZaLLLL5....u3EE33..h7h7XfwW.uOO3.......OE",
"1rLLLRXrLLLLLe....WE3E3...7h7hWQTOj.OWz.....#W3u",
"1rLXLLLXLXLXLLee56WEEWZ..0h7S0W2....QOQ53OWOWOuj",
"1rLLrLrLLLrLrLrrRRWEZWkh7h7hChu.....QOO3.#zOOO3u",
"1rrLrLrrLKLrrrrKRRZEEkk0h7h0qD......QOWz.zW2W2Y6",
"1rrLrrLrrLKrrrrrKKRDhkhh7hChq3.....j22OQ.#2iQQ31",
"1rrrrrrKLKLKrKrKKKKIk0h0h0qk3#Y....222Rz.YOO##u1",
"1rrrrLKrKrKrKKKKKrVVrkXkkDEvxxiY3u2Yv22#Y.i2Qij1",
"1rrKLKrrrKrKKKKKKrKVVoVkWvoFxxx##2Y2Y2viO.#2iO31",
"1rrKKKKLKKKKKrKVrVVVVAnnnnxFxxxxii222Yi#ijz2zuk1",
"11rKKrKKKKKKKrKrKVVVAAonnFnQFxxxx#vOviiziuYOYj11",
"11rKKKKKKKKrKVKVVVVVoAnnnnFFFFxxxx##iiiii..iYD11",
"111KKKKKKKKVKVKVVVVVAAnnnnFFFQFxPxx##i2....i5111",
"111KIKKrKrKVKVrVVVVAoAnnnnnxFFFxxxxxxY.....33D11",
"1114KrKKKVKrVKVVVVAoAnnnnnxFFQFxFxxxx......u6W11",
"1111KKKKVKVKVVVVVAoAnFnnnnnFFFFFQPxxx......3ZZ11",
"11111IKrKVKVVrVVVVAoAnAnnnnnxFFQFxxxx3....EWWW11",
"111111KrrVVVVVVVVAoAFnnnnnxnFFFFxFxxxxYY.uWWWW11",
"1111111XWKVrVVVVVAAAAnAnnnnFFFFxFQPxFxx35WWWWX11",
"111111117XVVVVVAAVoAnFnnnnnFxFFFQFxFxxYEWWWWW111",
"111111111kZrVVVVAoAoAnAnnnnnnFFFFxFx#jZ11XkX1111",
"11111111111WZVVAoAnnonnnnnxnxFFFQFxEu11111111111",
"1111111111111WZVoAonAonnnnnFnFFFPWjW111111111111",
"11111111111111D3ZWoAonnnnnnFnFW3jW11111111111111",
"1111111111111111kEu33ZWvWWR3uuEk1111111111111111",
"111111111111111111111DWWWWW111111111111111111111"
};
