/* XPM */
static char * dosprgdatei_xpm[] = {
"32 32 5 1",
" 	c #861782078617",
".	c #000000000000",
"X	c #D75CD34CD75C",
"o	c #FFFF00000000",
"O	c #FFFFFFFFFFFF",
" ............................   ",
" .XXX.oooooooooooooo.XXX.X.X..  ",
" .....oooooooooooooo..........  ",
" .XXX.oooooooooooooo.X.X.XXX..  ",
" .............................  ",
" .XXXXXXXXXXXXXXXXXXXXXXXXXX..  ",
" .XXXXXXXXXXXXXXXXXXXXXXXXXX..  ",
" .XX.X.X.X.X.X..XXXXXXXXXXXX..  ",
" .XX.X.X.X...X.XXXXXXXXXXXXX..  ",
" .XX.X.X.X...X..XXXXXXXXXXXX..  ",
" .XX...X.X...X.XXXXXXXXXXXXX..  ",
" .XX.X.X.X.X.X..XXXXXXXXXXXX..  ",
" .XXXXXXXXXXXXXXXXXXXXXXXXXX..  ",
" .XXXXXXXXXXXXXXXXXXXXXXXXXX..  ",
" .XXXXXXXXXXXXXXXXXXXXXXXXXX..  ",
" .XXXXXXXXXXXXXXXXXXXXXXXXXX..  ",
" .............................  ",
" .OOOOOOOOOOOOOOOOOOOOOOOOOO..  ",
" .O........................O..  ",
" .O........................O..  ",
" .O.OO...O...OO............O..  ",
" .O.O.O.O.O.O.O..O.........O..  ",
" .O.O.O.O.O.O.....O........O..  ",
" .O.O.O.O.O..O.....O.......O..  ",
" .O.O.O.O.O.O.O...O........O..  ",
" .O.OO...O..OO...O...OOOOO.O..  ",
" .O........................O..  ",
" .O........................O..  ",
" .O........................O..  ",
" .OOOOOOOOOOOOOOOOOOOOOOOOOO..  ",
" .............................  ",
"  ............................  "};
