/* XPM */
static char * editor_xpm[] = {
"48 48 65 1",
" 	c none",
".	c #965851442081",
"X	c #FFFF8A284103",
"o	c #492469A6DF7D",
"O	c #28A26595D75C",
"+	c #514451445144",
"@	c #4103514471C6",
"#	c #28A24D34D75C",
"$	c #71C69248E79D",
"%	c #86179658DF7D",
"&	c #10404103A699",
"*	c #410351449E79",
"=	c #FFFFFFFFFFFF",
"-	c #AEBACF3CEFBE",
";	c #A699B6DAEFBE",
":	c #E79DD75CEFBE",
">	c #59658A28DF7D",
",	c #EFBEF7DEF7DE",
"<	c #BEFBBAEADF7D",
"1	c #9658BAEAEFBE",
"2	c #CF3CD34CE79D",
"3	c #618575D6E79D",
"4	c #18614924D75C",
"5	c #618569A68617",
"6	c #8E38AAAAE79D",
"7	c #79E79658B6DA",
"8	c #082028A271C6",
"9	c #08200C3038E3",
"0	c #000000000000",
"q	c #0820208138E3",
"w	c #104030C29E79",
"e	c #104030C25144",
"r	c #186130C271C6",
"t	c #8E3896589E79",
"y	c #28A22CB25144",
"u	c #618569A66185",
"i	c #71C6AAAADF7D",
"p	c #28A241035965",
"a	c #B6DACB2BB6DA",
"s	c #410320811861",
"d	c #41030C301040",
"f	c #28A22CB22081",
"g	c #492465956185",
"h	c #492469A6AEBA",
"j	c #79E775D69658",
"k	c #A6999658A699",
"l	c #410345144924",
"z	c #18610C300820",
"x	c #861786178617",
"c	c #71C671C671C6",
"v	c #A699AAAAA699",
"b	c #28A241038E38",
"n	c #8617410330C2",
"m	c #B6DA659569A6",
"M	c #FFFFBAEA9658",
"N	c #FFFFB6DAA699",
"B	c #71C6861771C6",
"V	c #492430C230C2",
"C	c #9E796DB66185",
"Z	c #EFBE8A288617",
"A	c #DF7D92488617",
"S	c #5965451430C2",
"D	c #618530C230C2",
"F	c #79E751445144",
"G	c #DF7D75D68617",
"                                                ",
"                                                ",
"                                              .X",
"           oOo                               .XX",
"  +++++++@#$%&*+++++++++++++++++++++++++++++.XXX",
"  +=-;-:-#---%O>,<1========================.XXX.",
"  +23o3Oo-2>445O4O#>======================.XXX..",
"  +$>;;;-634444$--1&7====================.XXX...",
"  +>6-4448909q84444q*2,=================.XXX....",
"  @3164&00qw&wer&44qqt,================.XXX.....",
"  *423w09#;-2-;>w&4wy+u+++=+0+++=++++=.XXX......",
" oO-i409$,,@p@6;&3O4@#a,=============.XXX......s",
"oo2;o90O,2y089*%94%44%#+0++=========.XXX......df",
"O;1440&;,%0&444894>>44gh,==========.XXX......sfs",
"#$o4&04:<704444444#6440fj++0++++k=.XXX......dfsf",
" 4%4&04:1tq4444444O<4w0lt,=======.XXX......sfsfs",
"  #349426694444444o240zu5g++0=k=.XXX......dfsfdz",
"  O;494$-6p444O,44>;&0px2,=====.XXX......sfsfsf ",
" h%-4844;;%h4o:;04;6&95cug++k=.XXX......dfsfdz  ",
" #-%44p44@7%-:1jq%-#49@<,====.XXX......sfsfsf   ",
" o6o44w*44w9909qo-$4#0yc,+k=.XXX......dfsfdzf   ",
"  &e8&4o%44444O;-%&wq0lv,==.XXX......sfsfsf0f   ",
"  +>bqo44$;66;2;o9009fcck=.XXX......dfsfdzn0f   ",
"  +,vb>o444o$3O4&0qlgxv2,.XXX......sfsfsfn=0f   ",
"  +=,,#%44899w4490+cvck,mMNX......dfsfdzn==0f   ",
"  +===1oe909rwe90yB<,,,mNNN......sfsfsfn===0f   ",
"  +===+gyfVuc5*qfujuz+=CNNNZZZ..dfsfdznv+==0f   ",
"  +=====:vtv2:2ktk2,==CNNNAZZmCsfsfsfn=====0f   ",
"  +===+++0+u+g++:,++==mNNZZZmSDfsfdzn======0f   ",
"  +==================mNNAZAmSsfsVsfn=======0f   ",
"  +=========++=++0+v=mNZZZmSsfsVDzn========0f   ",
"  +=================CNNZZmSsfsVVFC=========0f   ",
"  +===++0++++0++=+k=mMGZmSsfDVnFG==+++=====0f   ",
"  +================mAGCFSffDFFA============0f   ",
"  +===00++=++++++=vCGmFVsVnSG==============0f   ",
"  +===============0mFDfsSFA================0f   ",
"  +===+++=+0+++v=+00sfDFG==================0f   ",
"  +==============00z0VC====================0f   ",
"  +=========+++=+000+vv=+0++++=+0+++++=====0f   ",
"  +=============00+========================0f   ",
"  +===0=++0+++=+0+++0++++=++=+++=+++0+++===0f   ",
"  +=============vvvvv======================0f   ",
"  +==============vvvkvvv===================0f   ",
"  +===============vvvvvvvvv================0f   ",
"  +================vvvkvvvkvvv=============0f   ",
"  +00000000000000000000000000000000000000000f   ",
"   ffffffffffffffffffffffffffffffffffffffffff   ",
"                                                "};
