/* XPM */
static char *foldericon[] = {
/* width height num_colors chars_per_pixel */
"    32    32       32            1",
/* colors */
". c #020204",
"# c #629a34",
"a c #caca34",
"b c none",
"c c #464648",
"d c #cacacc",
"e c #ca9a34",
"f c #fafab2",
"g c #62321c",
"h c #9a9a5c",
"i c #262628",
"j c #62629c",
"k c #8c8c8e",
"l c #fafa23",
"m c #61615e",
"n c #e8e8ea",
"o c #121214",
"p c #717173",
"q c #ca9acc",
"r c #fa9a9c",
"s c #facacc",
"t c #828284",
"u c #9a6264",
"v c #a4a4a6",
"w c #b7b7b9",
"x c #faca60",
"y c #fafa64",
"z c #d3d3d5",
"A c #f4f4f6",
"B c #525254",
"C c #323234",
"D c #9a9a9c",
/* pixels */
"bbbbbb..bbb...bbbbbbbbbbbbbbbbbb",
"bbbbbb.v..b.um..bbbbbbbbbbbbbbbb",
"bbbbbb.AAz..redm..bbbbbbbbbbbbbb",
"bbbbbb.AAAAAvmhrxh..bb.....bbbbb",
"..bbbb.AAAAnAAwpuare..edrau..bbb",
".w..bb.ffAAAAAAAApmerwxewxded.bb",
"b.nA...fffffAAAAAAAvmuarededw.bb",
"b.AAlAhkDffffffAAAAAAzpmxhrhrx.b",
"b.nnnnnAr#tffffffAAAAnAnpmherh.b",
"bb.snnslAslDtqfffffAAAAAAAtuhw.b",
"bb.AsslnslsnxdmhnffffAAAAADmew.b",
"bb.xAsxAsnslsnxshmwffffAAAkmh.bb",
"bb.lsnxAslsxnxxsdlq#uffffAmph.bb",
"bbb.AslsnxsxsxnxssxsxcAfnfBjh.bb",
"bbb.sAxsxsdlsdxsxddxshdfffCmh.bb",
"bbb.nxnxsxsdxsxsxdxxxqdfffCm.bbb",
"bbb.zxsxsxAxsxdxsxdxsxjffdcm.bbb",
"bbbb.xsxdxdxsxdxsxzxsxpyydgm.bbb",
"bbbb.xsxsxxxsxdxsxsxzxtyytg.bbbb",
"bbbb.zxsxdxsxxsxzxsxsxplltm.bbbb",
"bbbbb.xsxdxsxsxzxsxzxzmnlBm.bbbb",
"bbbbb.xsxdxsxzxsxsxdxnhdlc.mbbbb",
"bbbbb.xdxdxsxsxdxsxsxdevli.mkbbb",
"bbbbbb..esxdxsxsxzxzxsxklo.mtktb",
"bbbbbbbb..esxdxsxsxdxsxmdo.mpttt",
"bbbbbbbbbb..esxdxsxsxzxpk.immptb",
"bbbbbbbbbbbb..edxsxdxdxuk.ippkbb",
"bbbbbbbbbbbbbb..ezxdsxd#c.mmkbbb",
"bbbbbbbbbbbbbbbb..edxsxv..pkbbbb",
"bbbbbbbbbbbbbbbbbb..hxde.imbbbbb",
"bbbbbbbbbbbbbbbbbbbb..ux.Cbbbbbb",
"bbbbbbbbbbbbbbbbbbbbbb..Cbbbbbbb"
};
