/* XPM */
static char *home[] = {
/* width height num_colors chars_per_pixel */
"    48    48      128            2",
/* colors */
".. c #b2c0dc",
".# c #efefef",
".a c #514130",
".b c #614130",
".c c #000000",
".d c #414130",
".e c #ae9296",
".f c #dfbecf",
".g c #616151",
".h c #615151",
".i c #513020",
".j c #9e4141",
".k c #be8296",
".l c #868271",
".m c #967171",
".n c #dfcfbe",
".o c #be9296",
".p c #df4130",
".q c #ae929e",
".r c #968271",
".s c #969296",
".t c #868261",
".u c #ef929e",
".v c #df3030",
".w c #ae9286",
".x c #715161",
".y c #869296",
".z c #df3041",
".A c #968261",
".B c #969286",
".C c #412020",
".D c #cf4151",
".E c #9e6151",
".F c #967151",
".G c #303020",
".H c #303010",
".I c #003010",
".J c #003000",
".K c #86ef96",
".L c #304161",
".M c #203020",
".N c #105110",
".O c #102000",
".P c #303051",
".Q c #202020",
".R c #96ef96",
".S c #006110",
".T c #103010",
".U c #202030",
".V c #514151",
".W c #006100",
".X c #514161",
".Y c #414141",
".Z c #aea2ae",
".0 c #515161",
".1 c #201000",
".2 c #415141",
".3 c #514141",
".4 c #aea29e",
".5 c #aeae9e",
".6 c #414151",
".7 c #716196",
".8 c #102010",
".9 c #303061",
"#. c #001000",
"## c #516196",
"#a c #bea29e",
"#b c #beae9e",
"#c c #cfae9e",
"#d c #beae96",
"#e c #9e7151",
"#f c #9e6161",
"#g c #614141",
"#h c #96df96",
"#i c #101000",
"#j c #201020",
"#k c #202010",
"#l c #001010",
"#m c #302020",
"#n c #716171",
"#o c #100000",
"#p c #617161",
"#q c #717161",
"#r c #302030",
"#s c #106110",
"#t c #717171",
"#u c #9e9296",
"#v c #9ea2ae",
"#w c #9eae9e",
"#x c #106100",
"#y c #9ea296",
"#z c #716161",
"#A c #412010",
"#B c #302010",
"#C c #dfdfbe",
"#D c #dfcfcf",
"#E c #616161",
"#F c #aea296",
"#G c #514120",
"#H c #be9241",
"#I c #002000",
"#J c #efcfbe",
"#K c #417141",
"#L c #613020",
"#M c #416141",
"#N c #304151",
"#O c #511000",
"#P c #204120",
"#Q c #516141",
"#R c #416151",
"#S c #203030",
"#T c #305130",
"#U c #306130",
"#V c #305120",
"#W c #304130",
"#X c #718271",
"#Y c #105120",
"#Z c #104120",
"#0 c #205120",
"#1 c #867186",
"#2 c #204110",
"#3 c #415130",
"#4 c #416130",
"#5 c #306141",
"#6 c #305141",
"#7 c #303030",
"#8 c #103020",
"#9 c #204130",
/* pixels */
"................................................................................................",
"...............................................#.a.b............................................",
".............................................#.b.c.a.b..........................................",
"...........................................#.a.c.d.c.a.b.........#.#.e.f.#...g..................",
".........................................#.b.c.d.h.d.c.a.i.......#.j.j.g.k.j.c..................",
".......................................#.a.c.d.h.l.m.d.c.a.b.....n.o.p.q.j.o.c..................",
".....................................#.b.c.d.h.r.s.t.m.d.c.a.b...u.v.j.w.x.v.c..................",
"...................................#.a.c.d.h.l.s.y.s.l.m.d.c.a.b.g.z.g.j.w.z.c..................",
".................................#.b.c.d.h.A.s.B.#.s.s.A.m.d.c.a.b.g.k.g.x.j.c..................",
"...............................#.a.c.d.h.l.s.y.#.#.#.y.s.s.m.d.c.a.b.C.D.e.C.c..................",
".............................#.b.c.d.c.c.c.c.b.b.E.a.b.c.c.c.c.d.c.a.b.C.j.j.c..................",
"...........................#.a.c.d.h.c.c.c.c.c.c.F.c.c.C.c.c.c.m.d.c.a.b.C.z.c..................",
".........................#.b.c.d.h.A.c.c.c.G.c.c.E.c.c.H.c.c.c.A.m.d.c.a.b.C.c..................",
"...............I.......#.a.c.d.h.l.s.c.c.c.C.c.c.F.c.c.C.c.c.a.s.l.m.d.c.a.b.c..................",
"...............J.....#.b.c.c.h.r.s.B.c.G.C.G.C.G.E.G.C.G.C.G.b.s.s.t.m.d.c.a.c..................",
".............K.I...#.L.c.d.h.c.s.y.#.a.c.c.C.c.c.F.c.c.C.c.c.a.#.y.s.M.m.d.c.a.b................",
".............N...O.P.c.d.h.A.Q.l.#.#.b.c.c.G.c.c.E.c.c.H.c.c.b.#.#.l.Q.A.m.d.c.a.b..............",
"...........R.S.I.L.T.J.h.l.s.l.U.#.#.a.c.c.C.c.c.F.c.c.C.c.c.a.#.#.V.l.s.l.m.d.c.a.b............",
".........N.W.#.J.c.J.X.r.s.B.#.Y.Z.#.E.F.E.F.E.F.E.F.E.F.E.F.E.#.Z.Y.#.s.s.t.m.d.c.a.b..........",
"...........#.S.I.J.0.J.s.1.#.#.Z.2.#.a.#.#.#.#.#.#.#.#.#.#.#.a.#.2.Z.#.#.y.s.l.m.d.c.a.b........",
".........N.P.T.W.O.J.s.B.#.#.#.#.3.4.b.#.#.#.#.#.#.#.#.#.#.#.b.5.3.#.#.#.#.s.s.A.m.d.c.a.b......",
".......#.L.c.S.N.S.N.S.N.#.#.#.#.5.V.a.#.#.#.#.#.#.#.#.#.#.#.a.6.5.#.#.#.#.#.y.s.l.c.d.c.a.b....",
".....#.P.c.R.7.J.N.J.8.S.8.#.#.#.#.Y.b.#.#.#.#.#.#.#.#.#.#.#.b.Y.#.#.#.#.#.#.#.s.s.c.m.d.c.a.b..",
".....L.9.S.N.J#.##.I.S.I###a#b#c#d#a.2#c#d#a#b#c#d#a#b#c#d#a.F#e#d#a#b#c#d#a#b#c#d#f.a.b.a#g.a..",
".....c.W#h.J.c.J#i#.#..J#j#k#j#k#j#k#j#k#j#k#j#k#j#k#j#k#j#k#j#k#j#k#j#k#j#k#j#k#j.c.c.c.c.c.c..",
".....S.I.J.T#.#l#..9.J.I.L.b.a#g.a.b.c.c.c#m.c.c.c.c.c#m.c.c.c#g.a.b.a#g.a.b.a#g.a.c............",
"...R.N.S...J.8.P#n.W#o#..8.G#n.3#n.g.b.c.c.a.b.b.b.a.b.b.c.c.b.3.3#p.3#q#r.Y.3.3.3.c............",
".....J#s...I.S#s.J.Y.J#t.B#u#q#u#q#v.a.c.c#g.H.C.H#m.H.b.c.c.a#u#q#t#q.Y#w#t#w.Y#q.9............",
"#h.J...W.N#x...J#i.#.T#..O#y.#.##z.#.b.c.c.b#A.H#A#B#A.a.c.c.b.n.e.n.#.#.#.g.#.g.e.g............",
".J...J.I.J.T.J.I.J.T#.#l.#.T.g.##C.4.a.c.c.b.H.C.H.C.H#g.c.c.a#D#C.4.##E#y.4.##E#y#z............",
".....8.J.8.W.8.J.8.J.N.J.8.n.##y#F#y.b.c.c.a#A#B#A.H#A.b.c.c.b.n#z#y.#.g#F#y#z.#.#.P............",
".S...J#s..#h.J.9.S.I#.#.#..4.##z#y.#.a.c.c#g.H#G#G#G.H.b.c.c.a#D.##E.g.#.##E#y#z#y.c............",
"#h#x.T.....J.T#.#i.J#.#.#i#y.T.#.##y.b.c.c.b#A#H#A#G#A.a.c.c.b.#.e#y#F.g.##y#F#y.#.c............",
"...R.S.N.J.T.J.I.J.T.S.I#..T.n.4#y.#.a.c.c.b.H#G#G#G.H#g.c.c.a.##y.#.#.##y#z#y.##C.9............",
".....8.J#h.J...S.N.g#o#.#..J.8.J#D#y.b.c.c.a#A#B#A.H#A.b.c.c.b#y#F#y.e.##F#y.e#y#D.P............",
".J.N.J.I.S#l.S#..J.I#I#F.J.I#C.I#y.#.a.c.c#g.H.C.H#m.H.b.c.c.a#F#y.4#C.#.g#D.##D.g.c............",
"...J.T.W...J.T#.#i#.#..J.O#..T#y#z.n.b.c.c.b#A.H#A#B#A.a.c.c.b.g.##y.##y#J#y#F#y.e.P............",
".S.N.J#l#..N#G.N#E.T.S#l#..##..4.#.4.a.c.c.b.H.C.H.C.H#g.c.c.a.N#y.4.#.##E#z#y.N.#.9#K..........",
"#h.W.8.J.8.J#L.J.8.g.8.J#..J.N.J#F#y.b.F.E.a#A#B#A.H#A.b.E.F.b#..8.n.e.J.N.J.#.S.8.P#M#.........",
"...I...I#..I.J#.#..I.J.I.J.I.L.I#N.9.a.b.a#g.a.b.a#g.a.b.a#g#O#s.J#l.L.I.J#l.L#.#..9#.#M#P......",
"...J.T.J.O#.#.#..O#.#..J.O.J.T#M#Q#M#M#M#Q#M..#y#Q#y#F..#Q#M#M.J#i.J.T.J#i.J.T.J#i.J.T.J.d......",
"....#P#R#K#M#K#l#.#M#K#R#K#M#K#R#K#M#K#R#K#M#K..#K..#K#R#K#M#K#R#K#M#K#R#K#M#K#R#K#M#K#R#K#S....",
".....d#M#M#M#T#G#.#M.2#U#T#V#W#P#T#T#T#T#T#X.e#M#M#M.e#M#F#y#M#M#M#M#M#M#M#M#M#M#M#M#M#M#M#T....",
"..#S#K#M#K#P#Y#B#..I.J.I#Z#P#Y#P#0#P#Y#T#U#1#X#M#X.4..#M#y.4#K#M#K#R#K#M#P#R#K#M#K#R#K#M#K#R#P..",
"..#T#M#M#Q#T#P#2#P#2#P#2#P#2#W#U.O#T#T#U#3#T#T#U#Q#M#F#M#Q#M#M#M.2#4.2#4.2#4.2#4.2#4.2#4.2#4.2..",
"#P#M#5.2#5#M#U#6#U#T#0#P#U#P#Z#P#5#M#5.2#y.4....#y#M#K......#y.4#U.2#T#6#U.2#T#6#U.2#T#6#U.2#T#6",
"#W#P#7#P#W#P#7#T#W#P#7#P#W#P#7#P#W#P#7#P.2#y....#F#P#7#y#F#y#7#P#W#P#7#P#W#P#7#P#W#P#7#P#W#P#7#P",
".T.Q#8.Q.T.Q#8.Q.T.Q#8.Q.T.Q#8.Q.T.Q#8.Q.T.Q#8.Q.T#W#9.Q.T.Q#9#W.T.Q#8.Q.T.Q#8.Q.T.Q#8.Q.T.Q#8.Q"
};
