/* XPM */
static char *icon_jpg[] = {
/* width height num_colors chars_per_pixel */
"    32    32      102            2",
/* colors */
".. c #020204",
".# c #4ea264",
".a c #9aa214",
".b c #ce322c",
".c c #3a4244",
".d c #9ad65c",
".e c #3256e4",
".f c #22ca2c",
".g c #0e226c",
".h c #9e9eac",
".i c #d2e6fc",
".j c #ca82fc",
".k c #428afc",
".l c #5e5e44",
".m c none",
".n c #9276fc",
".o c #a6d2fc",
".p c #9aaaac",
".q c #728abc",
".r c #9afafc",
".s c #3e6664",
".t c #4e5ac4",
".u c #061a5c",
".v c #0e1e64",
".w c #5ea2ac",
".x c #92aee4",
".y c #fe427c",
".z c #4272c4",
".A c #6ac2fc",
".B c #3a3e44",
".C c #d2fefc",
".D c #caaafc",
".E c #b6f2fc",
".F c #061e6c",
".G c #424244",
".H c #16266c",
".I c #c256fc",
".J c #6adefc",
".K c #f63a6c",
".L c #0e266c",
".M c #5e9ae4",
".N c #7a6a6c",
".O c #bed2fc",
".P c #4a6684",
".Q c #0a1e64",
".R c #aebefc",
".S c #feeefc",
".T c #befefc",
".U c #7ad6fc",
".V c #7a862c",
".W c #e22e5c",
".X c #265ee4",
".Y c #a686fc",
".Z c #fa82fc",
".0 c #3e9afc",
".1 c #6a6a74",
".2 c #a6a6a4",
".3 c #7e92fc",
".4 c #6e7efc",
".5 c #5aaefc",
".6 c #92bef4",
".7 c #2e6afc",
".8 c #f2a6fc",
".9 c #424644",
"#. c #e672fc",
"## c #86e6fc",
"#a c #1e1e1c",
"#b c #e23a34",
"#c c #3e4244",
"#d c #12226c",
"#e c #fedafc",
"#f c #de92fc",
"#g c #6a5a5c",
"#h c #ba72fc",
"#i c #a2defc",
"#j c #aafefc",
"#k c #325e84",
"#l c #725ad4",
"#m c #0e1e6c",
"#n c #9aaefc",
"#o c #fe4e8c",
"#p c #dafefc",
"#q c #b2fefc",
"#r c #0a1e6c",
"#s c #d662fc",
"#t c #12266c",
"#u c #bad6fc",
"#v c #566a9c",
"#w c #fefefc",
"#x c #c6fefc",
"#y c #86d6fc",
"#z c #8a8a94",
"#A c #2e5ee4",
"#B c #ba9afc",
"#C c #4e9efc",
"#D c #aeaebc",
"#E c #869afc",
"#F c #0a1a64",
"#G c #4eb6fc",
"#H c #3a72fc",
"#I c #eab6fc",
"#J c #464644",
/* pixels */
".m.m.m.m.....................................m.m.m.m.m.m.m.m.m.m",
".m.m.m.m...f.f.f.f.a.a.a.a.b#b.y#o#h#..4#w.....m.m.m.m.m.m.m.m.m",
".m.m.m.m...f.f.f.f.a.a.a.a.b#b.y#o#h#..4#w...2...m.m.m.m.m.m.m.m",
".m.m.m.m...f.f.f.f.a.a.a.a.b#b.y.I#h#.#w.3...2.2...m.m.m.m.m.m.m",
".m.m.m.m...J.f.f.f.a.a.a.a.b#b.y.I#h.j.4#w...2.2.2...m.m.m.m.m.m",
".m.m.m.m..#y.#.f.f.V.a.V.V.b#b.y#o#h#.#w#w...2.2.2.2...m.m.m.m.m",
".m.m.m.m..#y.#.f.f.V.V.V.V.b#b.y#o#h.j#f#w...............m.m.m.m",
".m.m.m.m..#w.T.T#w#y.p#w#w#e.S#w#w#w#w#w#w#w.2.2.2.2.2..#a.m.m.m",
".m.m.m.m...T.1.d.s.d.d.1.l.W.K.y.Y#s#..6.o#w#w#w#w#w#w..#a.m.m.m",
".m.m.m.m...T.w.w.d.d.p.d.d#z.h#w#w#w#w#w#w#w#w#w#w#w#w..#a.m.m.m",
".m.m.m.m...T.t.w.P.d.d.l.1#g.K.n.Y#h.D.Z#w#w#w#w#w#w#w..#a.m.m.m",
".m.m.m.m...T#k.J.s.d.d.l.1.W.K.n.Y#B#.#w#w#q#w#w#w#w#w..#a.m.m.m",
".m.m.m.m..#j.#.w.s.#.d.d.l#g.N.n.Y#h#w#f#w#w#w#w#w#w#w..#a.m.m.m",
".m.m.m.m..#j#v.w.#.#.#.1.M#g.N.n.Y#B.j#w.8.T#w#w#w#w#w..#a.m.m.m",
".m.m.m.m...T.P.w.z.#.d.1.l#l.N.n.Y#B.j#w.E#w#w#w#w#w#w..#a.m.m.m",
".m.m.m.m..#j.P.J.#.#.d#I.1#z.h#D#n#u#w#f.E.T#w#w#w#w#w..#a.m.m.m",
".m.m.m.m..#j.t.w.#.z.#.w.1#z.h.x.Y.R.j.i#w.C#w#w#w#w#w..#a.m.m.m",
".m.m.m.m...T.P.J.#.#.#.t#v#z.h#E#n.R.O#i#x#w#w#w#w#w#w..#a.m.m.m",
".m.m.m.m..#j.P#G.#.P.#.t.w.q.h#E#n#w.O#w#w#p#w#w#w#w#w..#a.m.m.m",
".m.m.m.m..#j.z.J#k.0.Q#F#F#r.v.g.g.g#d.H.L.H.H.H.H.H.H..#a.m.m.m",
".m.m.m.m...T.z#G.P.#.Q.Q#F.v#m#m.g.g#d.H#t.H.H.H.H.H.H..#a.m.m.m",
".m.m.m.m...T.1#G.z#k.Q.Q.H#w.H.H#w#w#w.H.H.H#w#w#w.H.H..#a.m.m.m",
".m.m.m.m...T#v#G#k.0.u.Q.H#w.H.H#w.H.H#w.H#w.H.H.H.H.H..#a.m.m.m",
".m.m.m.m...T#v.J#G.z.Q.Q.H#w.H.H#w.H.H#w.H#w.H.H#w#w.H..#a.m.m.m",
".m.m.m.m...T.P#G.z.0.Q.F.H#w.H.H#w#w#w.H.H#w.H.H.H#w.H..#a.m.m.m",
".m.m.m.m..#w#w.T#w.T.H#w.H#w.H.H#w.H.H.H.H#w.H.H.H#w.H..#a.m.m.m",
".m.m.m.m..#w.1#y.P#v#F#F#w.H.H.H#w.H.H.H.H.H#w#w#w.H.H..#a.m.m.m",
".m.m.m.m...7#G.J.J.J.g.g.g.L.L.L#t.H#t.H.H.H.H.H.H.H.H..#a.m.m.m",
".m.m.m.m...7.7#y#H.z.z.B.B.c#c#c.G.9.9.9#J#J#J#J#J#J#J..#a.m.m.m",
".m.m.m.m...X.7.e#A.7.7.7.7.k#C.5.A.U##.r.T.C#w#w#w#w#w..#a.m.m.m",
".m.m.m.m................................................#a.m.m.m",
".m.m.m.m.m#a#a#a#a#a#a#a#a#a#a#a#a#a#a#a#a#a#a#a#a#a#a#a#a.m.m.m"
};
