/* XPM */
static char * prgdatei_xpm[] = {
"32 32 4 1",
" 	c #861782078617",
".	c #000000000000",
"X	c #8617CF3CEFBE",
"o	c #D75CD34CD75C",
" ............................   ",
" .XX..XXXXXXXXXXXXXX.XXX.X.X..  ",
" .X.X.XXXXXXXXXXXXXX.X.X..X...  ",
" ..XX.XXXXXXXXXXXXXX.XXX.X.X..  ",
" .............................  ",
" .oooooooooooooooooooooooooo..  ",
" .oooooooooooooooooooooooooo..  ",
" .oooooooooooooooooooooooooo..  ",
" .oooooooooooooooooooooooooo..  ",
" .oooooooooooooooooooooooooo..  ",
" .oooooooooooooooooooooooooo..  ",
" .oooooooooooooooooooooooooo..  ",
" .oooooooooooooooooooooooooo..  ",
" .oooooooooooooooooooooooooo..  ",
" .oooooooooooooooooooooooooo..  ",
" .oooooooooooooooooooooooooo..  ",
" .oooooooooooooooooooooooooo..  ",
" .oooooooooooooooooooooooooo..  ",
" .oooooooooooooooooooooooooo..  ",
" .oooooooooooooooooooooooooo..  ",
" .oooooooooooooooooooooooooo..  ",
" .oooooooooooooooooooooooooo..  ",
" .oooooooooooooooooooooooooo..  ",
" .oooooooooooooooooooooooooo..  ",
" .o..o.o.o..oo.o.o.o...o..oo..  ",
" .o.oo.o.o.oo.oo.o.oo.oo.ooo..  ",
" .o..oo.oo..o.oo.o.oo.oo..oo..  ",
" .o.oo.o.o.oo.oo.o.oo.oo.ooo..  ",
" .o..o.o.o..oo.oo.ooo.oo..oo..  ",
" .oooooooooooooooooooooooooo..  ",
" .............................  ",
"  ............................  "};
