/* XPM */
static char *trashcan[] = {
/* width height num_colors chars_per_pixel */
"    48    48       35            1",
/* colors */
". c #020204",
"# c #12a224",
"a c #32c644",
"b c #8e8e94",
"c c #62e27c",
"d c #0a5e0c",
"e c #1ab22c",
"f c #023604",
"g c #8ed2ac",
"h c #121204",
"i c #12fa1c",
"j c #528654",
"k c #86b68c",
"l c #2a7e3c",
"m c #5ab264",
"n c #a6fea4",
"o c #4aca54",
"p c #86fea4",
"q c #226e34",
"r c #2ac234",
"s c #2a1e14",
"t c #9ebe9c",
"u c #020e04",
"v c #2a962c",
"w c #7ae6a4",
"x c #22622c",
"y c #32ae2c",
"z c #1a3a24",
"A c #9ee2ac",
"B c #121e04",
"C c #22fa34",
"D c #5aa264",
"E c #aefabc",
"F c #5ad264",
"G c none",
/* pixels */
"GGGGGGGGGGGGGGGGGGGGGGGGGddddffBBfGGGGGGGGGGGGGG",
"GGGGGGGGGGGGGGGGAAAAAAAAarvuuzzzddsfGGGGGGGGGGGG",
"GGGGGGGGGGGGGGwAAAAAEAcceyuzzzdddddxfGGGGGGGGGGG",
"GGGGGGGGGGGGGcAAAnAwcFFmy.zdfdddddxqxfGGGGGGGGGG",
"GGGGGGGGGGGGGAAAwAgckFaruzzzddddxqxqvfGGGGGGGGGG",
"GGGGGGGGGGGGAnAwctFmarrv.zzdddddqqqlllsGGGdBdGGG",
"GGGGGGGGGGGxAAcckFmrmreelhddddxqqlllv#fGdhffdGGG",
"GGGGGGGGGGGgcFFmommyevvx.ffddqqlqllvlvqfsvddGGGG",
"GGGGGGGGGGGckFmrareejevu..fdxqqlvqv###v#e#fGGGGG",
"GGGGGGGGGdFkamryyjev#vd...sddqqll#lvveyelBGGGGGG",
"GGGGGGGGGdmorreeve#e##u....fdqvlv#eeeeeyddGGGGGG",
"GGGGGGGGdymmrye#evvvvdu....fdqlvqvveyrrvsGGGGGGG",
"GGGGGGGGGdfqyeve#####u......Bqv#eyerraaBGGGGGGGG",
"GGGGGGGGGGGdfqvv#lvldu.....ff#veveyrarddGGGGGGGG",
"GGGGGGGGGGGGGdBl#v##f....Bfqv#eyeerarqfGGGGGGGGG",
"GGGGGGGGGGGGGGGdfqvvf...sfffsfffsfffsfGGGddBGGGG",
"GGGGGGGGGGGGGG...dff..................GddxvuGGGG",
"BDAgAgAgAgwocuq......................ddqlvllfGGG",
"GfhaAAAAAAcccCB....................ddx##v###fGGG",
"GGlhhAwwwgccoFdd.......yvlqq.....ddllvlvlvvvxfGG",
"GGGbxAcwcccFForf......yoiyqdq...dqv###v##v#vefGG",
"GGGGcccFcFoFoarjf.....eEEeqdf...dvlvlvlvv#vyvysG",
"GGGxcckFFoooareedd....yCi#ldf....d##v#eveereeyff",
"GGGFkCiarrrreeyeylf...qqlddBd.....d#y#eerrrraorB",
"GGGkoommreyveveBevdd..qdddhfq.....dleyerrmomoryf",
"GGGoorrreeeeeehdffqf...xfBdq.......deerraoorrjef",
"GGGqmyreevyyedf...ff..........f....dqmmrmmarjyxf",
"GGGdereeyeyeyu................f.....deraaare#qfG",
"GGGGleeeevevdu...............n......dleeyev#llsG",
"GGGGdeeeeeyeu................Au......deje###qhGG",
"GGGGGqyyevyxu...............cnu......dxllldfsfGG",
"GGGGGGyeeey.hBffBBfddddd....EEfBBdfdddddBffdhGGG",
"GGGGGGlvevd.zzdxxqllvlvs...wEnAAAcFoyevlxdddfGGG",
"GGGGGGGeyeuffddqqxl##v#f..qEnAAAwcame#vlqddfGGGG",
"GGGGGGGDeduzdddqlqllvvyf.dcnAAwckoayvvlldddfGGGG",
"GGGGGGGdyu.zdddqqlqv#erf..pApAckFmree#qqddfGGGGG",
"GGGGGGGdquzzdxxqllvveersdwAAAwFFmmyevlqddzhGGGGG",
"GGGGGGGGduzddqqqqv#eerrfGwpAwciFore#vlxdzhGGGGGG",
"GGGGGGGGdhzdddqqllvvroofGGAAgcFayevvqqddzfGGGGGG",
"GGGGGGGGGhfddqqll#yerCFhGGwcckoDyv#llxqzhGGGGGGG",
"GGGGGGGGGGfddxll#qymoFwuGGdttFmyvvlldxzfGGGGGGGG",
"GGGGGGGGGGGffql##eyiFwcfGGdFkmeeellqdhfGGGGGGGGG",
"GGGGGGGGGGGGGhfffsfffsffGGGGFyuuu.u.sGGGGGGGGGGG",
"GGGGGGGGGGGGGGGGGGGGGGGGGGGdkyuGGGGGGGGGGGGGGGGG",
"GGGGGGGGGGGGGGGGGGGGGGGGGGGGGe.GGGGGGGGGGGGGGGGG",
"GGGGGGGGGGGGGGGGGGGGGGGGGGGGGD.GGGGGGGGGGGGGGGGG",
"GGGGGGGGGGGGGGGGGGGGGGGGGGGGGGfGGGGGGGGGGGGGGGGG",
"GGGGGGGGGGGGGGGGGGGGGGGGGGGGGGBGGGGGGGGGGGGGGGGG"
};
