/* XPM */
static char * moveymiddle_xpm[] = {
"14 14 3 1",
" 	c #861782078617",
".	c #FFFFFFFFFFFF",
"X	c #CF3CCF3CCF3C",
" .XXXXXXXXXX .",
" .XXXXXXXXXX .",
" .XXXXXXXXXX .",
" .XXXXXXXXXX .",
" .XXXXXXXXXX .",
" .XXXXXXXXXX .",
" .XXXXXXXXXX .",
" .XXXXXXXXXX .",
" .XXXXXXXXXX .",
" .XXXXXXXXXX .",
" .XXXXXXXXXX .",
" .XXXXXXXXXX .",
" .XXXXXXXXXX .",
" .XXXXXXXXXX ."};
