/* XPM */
static char * movexmainleft_p_xpm[] = {
"14 14 3 1",
" 	c #861782078617",
".	c #FFFFFFFFFFFF",
"X	c #CF3CCF3CCF3C",
"              ",
" ............X",
" .XXXXXXXXXXX ",
" .XXXXXX.XXXX ",
" .XXXXX..XXXX ",
" .XXXX..XXXXX ",
" .XXX..XXXXXX ",
" .XXX..XXXXXX ",
" .XXXX..XXXXX ",
" .XXXXX..XXXX ",
" .XXXXXX.XXXX ",
" .XXXXXXXXXXX ",
" X            ",
".............."};
