/* XPM */
static char * moveybottom_xpm[] = {
"14 3 3 1",
" 	c #861782078617",
".	c #FFFFFFFFFFFF",
"X	c #CF3CCF3CCF3C",
" .XXXXXXXXXX .",
" .XXXXXXXXXX .",
"             ."};
