/* XPM */
static char * quader_xpm[] = {
"14 14 2 1",
" 	c #861782078617",
".	c #FFFFFFFFFFFF",
" . . . . . . .",
". . . . . . . ",
" . . . . . . .",
". . . . . . . ",
" . . . . . . .",
". . . . . . . ",
" . . . . . . .",
". . . . . . . ",
" . . . . . . .",
". . . . . . . ",
" . . . . . . .",
". . . . . . . ",
" . . . . . . .",
". . . . . . . "};
